M48
; DRILL file {KiCad 8.0.6-8.0.6-0~ubuntu22.04.1} date 2024-12-10T00:28:20+0900
; FORMAT={-:-/ absolute / metric / decimal}
; #@! TF.CreationDate,2024-12-10T00:28:20+09:00
; #@! TF.GenerationSoftware,Kicad,Pcbnew,8.0.6-8.0.6-0~ubuntu22.04.1
; #@! TF.FileFunction,Plated,1,2,PTH
FMAT,2
METRIC
; #@! TA.AperFunction,Plated,PTH,ComponentDrill
T1C0.800
; #@! TA.AperFunction,Plated,PTH,ComponentDrill
T2C1.020
; #@! TA.AperFunction,Plated,PTH,ComponentDrill
T3C1.070
; #@! TA.AperFunction,Plated,PTH,ComponentDrill
T4C2.700
%
G90
G05
T1
X111.7Y-61.92
X111.7Y-72.08
X140.0Y-52.5
X140.0Y-55.0
X142.38Y-92.38
X142.38Y-94.92
X142.38Y-97.46
X142.38Y-100.0
X150.0Y-52.5
X150.0Y-55.0
X150.0Y-92.38
X150.0Y-94.92
X150.0Y-97.46
X150.0Y-100.0
T2
X118.25Y-90.49
X118.25Y-93.03
X118.25Y-95.57
X118.25Y-98.11
X118.25Y-100.65
X118.25Y-103.19
X118.25Y-105.73
X118.25Y-108.27
X118.25Y-110.81
X118.25Y-113.35
X118.25Y-115.89
X118.25Y-118.43
X118.25Y-120.97
X118.25Y-123.51
X118.25Y-126.05
X118.25Y-128.59
X118.25Y-131.13
X118.25Y-133.67
X118.25Y-136.21
X120.79Y-90.49
X120.79Y-93.03
X120.79Y-95.57
X120.79Y-98.11
X120.79Y-100.65
X120.79Y-103.19
X120.79Y-105.73
X120.79Y-108.27
X120.79Y-110.81
X120.79Y-113.35
X120.79Y-115.89
X120.79Y-118.43
X120.79Y-120.97
X120.79Y-123.51
X120.79Y-126.05
X120.79Y-128.59
X120.79Y-131.13
X120.79Y-133.67
X120.79Y-136.21
X179.21Y-90.49
X179.21Y-93.03
X179.21Y-95.57
X179.21Y-98.11
X179.21Y-100.65
X179.21Y-103.19
X179.21Y-105.73
X179.21Y-108.27
X179.21Y-110.81
X179.21Y-113.35
X179.21Y-115.89
X179.21Y-118.43
X179.21Y-120.97
X179.21Y-123.51
X179.21Y-126.05
X179.21Y-128.59
X179.21Y-131.13
X179.21Y-133.67
X179.21Y-136.21
X181.75Y-90.49
X181.75Y-93.03
X181.75Y-95.57
X181.75Y-98.11
X181.75Y-100.65
X181.75Y-103.19
X181.75Y-105.73
X181.75Y-108.27
X181.75Y-110.81
X181.75Y-113.35
X181.75Y-115.89
X181.75Y-118.43
X181.75Y-120.97
X181.75Y-123.51
X181.75Y-126.05
X181.75Y-128.59
X181.75Y-131.13
X181.75Y-133.67
X181.75Y-136.21
T3
X125.87Y-100.65
X125.87Y-103.19
X125.87Y-105.73
X125.87Y-108.27
X125.87Y-110.81
X125.87Y-113.35
X125.87Y-115.89
X125.87Y-118.43
X125.87Y-123.51
X125.87Y-126.05
X125.87Y-128.59
X125.87Y-131.13
X125.87Y-133.67
X125.87Y-136.21
X174.13Y-91.51
X174.13Y-94.05
X174.13Y-96.59
X174.13Y-99.13
X174.13Y-101.67
X174.13Y-104.21
X174.13Y-106.75
X174.13Y-109.29
X174.13Y-111.83
X174.13Y-114.37
X174.13Y-118.43
X174.13Y-120.97
X174.13Y-123.51
X174.13Y-126.05
X174.13Y-128.59
X174.13Y-131.13
X174.13Y-133.67
X174.13Y-136.21
T4
X105.0Y-90.0
X105.0Y-100.0
X105.0Y-110.0
X105.0Y-120.0
X110.0Y-90.0
X110.0Y-100.0
X110.0Y-110.0
X110.0Y-120.0
X190.0Y-90.0
X190.0Y-100.0
X190.0Y-110.0
X190.0Y-120.0
X195.0Y-90.0
X195.0Y-100.0
X195.0Y-110.0
X195.0Y-120.0
M30
