%TF.GenerationSoftware,KiCad,Pcbnew,8.0.6-8.0.6-0~ubuntu22.04.1*%
%TF.CreationDate,2024-12-10T00:27:45+09:00*%
%TF.ProjectId,FastCANDriver,46617374-4341-44e4-9472-697665722e6b,rev?*%
%TF.SameCoordinates,Original*%
%TF.FileFunction,Legend,Top*%
%TF.FilePolarity,Positive*%
%FSLAX46Y46*%
G04 Gerber Fmt 4.6, Leading zero omitted, Abs format (unit mm)*
G04 Created by KiCad (PCBNEW 8.0.6-8.0.6-0~ubuntu22.04.1) date 2024-12-10 00:27:45*
%MOMM*%
%LPD*%
G01*
G04 APERTURE LIST*
%ADD10C,0.150000*%
%ADD11C,0.120000*%
%ADD12C,0.127000*%
%ADD13C,0.200000*%
G04 APERTURE END LIST*
D10*
X147204819Y-55464285D02*
X147204819Y-55369047D01*
X147204819Y-55369047D02*
X147252438Y-55273809D01*
X147252438Y-55273809D02*
X147300057Y-55226190D01*
X147300057Y-55226190D02*
X147395295Y-55178571D01*
X147395295Y-55178571D02*
X147585771Y-55130952D01*
X147585771Y-55130952D02*
X147823866Y-55130952D01*
X147823866Y-55130952D02*
X148014342Y-55178571D01*
X148014342Y-55178571D02*
X148109580Y-55226190D01*
X148109580Y-55226190D02*
X148157200Y-55273809D01*
X148157200Y-55273809D02*
X148204819Y-55369047D01*
X148204819Y-55369047D02*
X148204819Y-55464285D01*
X148204819Y-55464285D02*
X148157200Y-55559523D01*
X148157200Y-55559523D02*
X148109580Y-55607142D01*
X148109580Y-55607142D02*
X148014342Y-55654761D01*
X148014342Y-55654761D02*
X147823866Y-55702380D01*
X147823866Y-55702380D02*
X147585771Y-55702380D01*
X147585771Y-55702380D02*
X147395295Y-55654761D01*
X147395295Y-55654761D02*
X147300057Y-55607142D01*
X147300057Y-55607142D02*
X147252438Y-55559523D01*
X147252438Y-55559523D02*
X147204819Y-55464285D01*
X148109580Y-54702380D02*
X148157200Y-54654761D01*
X148157200Y-54654761D02*
X148204819Y-54702380D01*
X148204819Y-54702380D02*
X148157200Y-54749999D01*
X148157200Y-54749999D02*
X148109580Y-54702380D01*
X148109580Y-54702380D02*
X148204819Y-54702380D01*
X148204819Y-53702381D02*
X148204819Y-54273809D01*
X148204819Y-53988095D02*
X147204819Y-53988095D01*
X147204819Y-53988095D02*
X147347676Y-54083333D01*
X147347676Y-54083333D02*
X147442914Y-54178571D01*
X147442914Y-54178571D02*
X147490533Y-54273809D01*
X147538152Y-53273809D02*
X148538152Y-53273809D01*
X148061961Y-52797619D02*
X148157200Y-52750000D01*
X148157200Y-52750000D02*
X148204819Y-52654762D01*
X148061961Y-53273809D02*
X148157200Y-53226190D01*
X148157200Y-53226190D02*
X148204819Y-53130952D01*
X148204819Y-53130952D02*
X148204819Y-52940476D01*
X148204819Y-52940476D02*
X148157200Y-52845238D01*
X148157200Y-52845238D02*
X148061961Y-52797619D01*
X148061961Y-52797619D02*
X147538152Y-52797619D01*
X147681009Y-51892857D02*
X147681009Y-52226190D01*
X148204819Y-52226190D02*
X147204819Y-52226190D01*
X147204819Y-52226190D02*
X147204819Y-51750000D01*
X107166666Y-115454819D02*
X107166666Y-116169104D01*
X107166666Y-116169104D02*
X107119047Y-116311961D01*
X107119047Y-116311961D02*
X107023809Y-116407200D01*
X107023809Y-116407200D02*
X106880952Y-116454819D01*
X106880952Y-116454819D02*
X106785714Y-116454819D01*
X108071428Y-115788152D02*
X108071428Y-116454819D01*
X107833333Y-115407200D02*
X107595238Y-116121485D01*
X107595238Y-116121485D02*
X108214285Y-116121485D01*
X113428571Y-120114700D02*
X114571429Y-120114700D01*
X114000000Y-120686128D02*
X114000000Y-119543271D01*
X100428571Y-120114700D02*
X101571429Y-120114700D01*
X137204819Y-55464285D02*
X137204819Y-55369047D01*
X137204819Y-55369047D02*
X137252438Y-55273809D01*
X137252438Y-55273809D02*
X137300057Y-55226190D01*
X137300057Y-55226190D02*
X137395295Y-55178571D01*
X137395295Y-55178571D02*
X137585771Y-55130952D01*
X137585771Y-55130952D02*
X137823866Y-55130952D01*
X137823866Y-55130952D02*
X138014342Y-55178571D01*
X138014342Y-55178571D02*
X138109580Y-55226190D01*
X138109580Y-55226190D02*
X138157200Y-55273809D01*
X138157200Y-55273809D02*
X138204819Y-55369047D01*
X138204819Y-55369047D02*
X138204819Y-55464285D01*
X138204819Y-55464285D02*
X138157200Y-55559523D01*
X138157200Y-55559523D02*
X138109580Y-55607142D01*
X138109580Y-55607142D02*
X138014342Y-55654761D01*
X138014342Y-55654761D02*
X137823866Y-55702380D01*
X137823866Y-55702380D02*
X137585771Y-55702380D01*
X137585771Y-55702380D02*
X137395295Y-55654761D01*
X137395295Y-55654761D02*
X137300057Y-55607142D01*
X137300057Y-55607142D02*
X137252438Y-55559523D01*
X137252438Y-55559523D02*
X137204819Y-55464285D01*
X138109580Y-54702380D02*
X138157200Y-54654761D01*
X138157200Y-54654761D02*
X138204819Y-54702380D01*
X138204819Y-54702380D02*
X138157200Y-54749999D01*
X138157200Y-54749999D02*
X138109580Y-54702380D01*
X138109580Y-54702380D02*
X138204819Y-54702380D01*
X138204819Y-53702381D02*
X138204819Y-54273809D01*
X138204819Y-53988095D02*
X137204819Y-53988095D01*
X137204819Y-53988095D02*
X137347676Y-54083333D01*
X137347676Y-54083333D02*
X137442914Y-54178571D01*
X137442914Y-54178571D02*
X137490533Y-54273809D01*
X137538152Y-53273809D02*
X138538152Y-53273809D01*
X138061961Y-52797619D02*
X138157200Y-52750000D01*
X138157200Y-52750000D02*
X138204819Y-52654762D01*
X138061961Y-53273809D02*
X138157200Y-53226190D01*
X138157200Y-53226190D02*
X138204819Y-53130952D01*
X138204819Y-53130952D02*
X138204819Y-52940476D01*
X138204819Y-52940476D02*
X138157200Y-52845238D01*
X138157200Y-52845238D02*
X138061961Y-52797619D01*
X138061961Y-52797619D02*
X137538152Y-52797619D01*
X137681009Y-51892857D02*
X137681009Y-52226190D01*
X138204819Y-52226190D02*
X137204819Y-52226190D01*
X137204819Y-52226190D02*
X137204819Y-51750000D01*
X107166666Y-95454819D02*
X107166666Y-96169104D01*
X107166666Y-96169104D02*
X107119047Y-96311961D01*
X107119047Y-96311961D02*
X107023809Y-96407200D01*
X107023809Y-96407200D02*
X106880952Y-96454819D01*
X106880952Y-96454819D02*
X106785714Y-96454819D01*
X107595238Y-95550057D02*
X107642857Y-95502438D01*
X107642857Y-95502438D02*
X107738095Y-95454819D01*
X107738095Y-95454819D02*
X107976190Y-95454819D01*
X107976190Y-95454819D02*
X108071428Y-95502438D01*
X108071428Y-95502438D02*
X108119047Y-95550057D01*
X108119047Y-95550057D02*
X108166666Y-95645295D01*
X108166666Y-95645295D02*
X108166666Y-95740533D01*
X108166666Y-95740533D02*
X108119047Y-95883390D01*
X108119047Y-95883390D02*
X107547619Y-96454819D01*
X107547619Y-96454819D02*
X108166666Y-96454819D01*
X113428571Y-100114700D02*
X114571429Y-100114700D01*
X114000000Y-100686128D02*
X114000000Y-99543271D01*
X100428571Y-100114700D02*
X101571429Y-100114700D01*
X192166666Y-93454819D02*
X192166666Y-94169104D01*
X192166666Y-94169104D02*
X192119047Y-94311961D01*
X192119047Y-94311961D02*
X192023809Y-94407200D01*
X192023809Y-94407200D02*
X191880952Y-94454819D01*
X191880952Y-94454819D02*
X191785714Y-94454819D01*
X192785714Y-93883390D02*
X192690476Y-93835771D01*
X192690476Y-93835771D02*
X192642857Y-93788152D01*
X192642857Y-93788152D02*
X192595238Y-93692914D01*
X192595238Y-93692914D02*
X192595238Y-93645295D01*
X192595238Y-93645295D02*
X192642857Y-93550057D01*
X192642857Y-93550057D02*
X192690476Y-93502438D01*
X192690476Y-93502438D02*
X192785714Y-93454819D01*
X192785714Y-93454819D02*
X192976190Y-93454819D01*
X192976190Y-93454819D02*
X193071428Y-93502438D01*
X193071428Y-93502438D02*
X193119047Y-93550057D01*
X193119047Y-93550057D02*
X193166666Y-93645295D01*
X193166666Y-93645295D02*
X193166666Y-93692914D01*
X193166666Y-93692914D02*
X193119047Y-93788152D01*
X193119047Y-93788152D02*
X193071428Y-93835771D01*
X193071428Y-93835771D02*
X192976190Y-93883390D01*
X192976190Y-93883390D02*
X192785714Y-93883390D01*
X192785714Y-93883390D02*
X192690476Y-93931009D01*
X192690476Y-93931009D02*
X192642857Y-93978628D01*
X192642857Y-93978628D02*
X192595238Y-94073866D01*
X192595238Y-94073866D02*
X192595238Y-94264342D01*
X192595238Y-94264342D02*
X192642857Y-94359580D01*
X192642857Y-94359580D02*
X192690476Y-94407200D01*
X192690476Y-94407200D02*
X192785714Y-94454819D01*
X192785714Y-94454819D02*
X192976190Y-94454819D01*
X192976190Y-94454819D02*
X193071428Y-94407200D01*
X193071428Y-94407200D02*
X193119047Y-94359580D01*
X193119047Y-94359580D02*
X193166666Y-94264342D01*
X193166666Y-94264342D02*
X193166666Y-94073866D01*
X193166666Y-94073866D02*
X193119047Y-93978628D01*
X193119047Y-93978628D02*
X193071428Y-93931009D01*
X193071428Y-93931009D02*
X192976190Y-93883390D01*
X198428571Y-90114700D02*
X199571429Y-90114700D01*
X185428571Y-90114700D02*
X186571429Y-90114700D01*
X186000000Y-90686128D02*
X186000000Y-89543271D01*
X142951905Y-102784819D02*
X142951905Y-101784819D01*
X142951905Y-101784819D02*
X143285238Y-102499104D01*
X143285238Y-102499104D02*
X143618571Y-101784819D01*
X143618571Y-101784819D02*
X143618571Y-102784819D01*
X144666190Y-102689580D02*
X144618571Y-102737200D01*
X144618571Y-102737200D02*
X144475714Y-102784819D01*
X144475714Y-102784819D02*
X144380476Y-102784819D01*
X144380476Y-102784819D02*
X144237619Y-102737200D01*
X144237619Y-102737200D02*
X144142381Y-102641961D01*
X144142381Y-102641961D02*
X144094762Y-102546723D01*
X144094762Y-102546723D02*
X144047143Y-102356247D01*
X144047143Y-102356247D02*
X144047143Y-102213390D01*
X144047143Y-102213390D02*
X144094762Y-102022914D01*
X144094762Y-102022914D02*
X144142381Y-101927676D01*
X144142381Y-101927676D02*
X144237619Y-101832438D01*
X144237619Y-101832438D02*
X144380476Y-101784819D01*
X144380476Y-101784819D02*
X144475714Y-101784819D01*
X144475714Y-101784819D02*
X144618571Y-101832438D01*
X144618571Y-101832438D02*
X144666190Y-101880057D01*
X145094762Y-102784819D02*
X145094762Y-101784819D01*
X145094762Y-101784819D02*
X145475714Y-101784819D01*
X145475714Y-101784819D02*
X145570952Y-101832438D01*
X145570952Y-101832438D02*
X145618571Y-101880057D01*
X145618571Y-101880057D02*
X145666190Y-101975295D01*
X145666190Y-101975295D02*
X145666190Y-102118152D01*
X145666190Y-102118152D02*
X145618571Y-102213390D01*
X145618571Y-102213390D02*
X145570952Y-102261009D01*
X145570952Y-102261009D02*
X145475714Y-102308628D01*
X145475714Y-102308628D02*
X145094762Y-102308628D01*
X146047143Y-101880057D02*
X146094762Y-101832438D01*
X146094762Y-101832438D02*
X146190000Y-101784819D01*
X146190000Y-101784819D02*
X146428095Y-101784819D01*
X146428095Y-101784819D02*
X146523333Y-101832438D01*
X146523333Y-101832438D02*
X146570952Y-101880057D01*
X146570952Y-101880057D02*
X146618571Y-101975295D01*
X146618571Y-101975295D02*
X146618571Y-102070533D01*
X146618571Y-102070533D02*
X146570952Y-102213390D01*
X146570952Y-102213390D02*
X145999524Y-102784819D01*
X145999524Y-102784819D02*
X146618571Y-102784819D01*
X147523333Y-101784819D02*
X147047143Y-101784819D01*
X147047143Y-101784819D02*
X146999524Y-102261009D01*
X146999524Y-102261009D02*
X147047143Y-102213390D01*
X147047143Y-102213390D02*
X147142381Y-102165771D01*
X147142381Y-102165771D02*
X147380476Y-102165771D01*
X147380476Y-102165771D02*
X147475714Y-102213390D01*
X147475714Y-102213390D02*
X147523333Y-102261009D01*
X147523333Y-102261009D02*
X147570952Y-102356247D01*
X147570952Y-102356247D02*
X147570952Y-102594342D01*
X147570952Y-102594342D02*
X147523333Y-102689580D01*
X147523333Y-102689580D02*
X147475714Y-102737200D01*
X147475714Y-102737200D02*
X147380476Y-102784819D01*
X147380476Y-102784819D02*
X147142381Y-102784819D01*
X147142381Y-102784819D02*
X147047143Y-102737200D01*
X147047143Y-102737200D02*
X146999524Y-102689580D01*
X148428095Y-101784819D02*
X148237619Y-101784819D01*
X148237619Y-101784819D02*
X148142381Y-101832438D01*
X148142381Y-101832438D02*
X148094762Y-101880057D01*
X148094762Y-101880057D02*
X147999524Y-102022914D01*
X147999524Y-102022914D02*
X147951905Y-102213390D01*
X147951905Y-102213390D02*
X147951905Y-102594342D01*
X147951905Y-102594342D02*
X147999524Y-102689580D01*
X147999524Y-102689580D02*
X148047143Y-102737200D01*
X148047143Y-102737200D02*
X148142381Y-102784819D01*
X148142381Y-102784819D02*
X148332857Y-102784819D01*
X148332857Y-102784819D02*
X148428095Y-102737200D01*
X148428095Y-102737200D02*
X148475714Y-102689580D01*
X148475714Y-102689580D02*
X148523333Y-102594342D01*
X148523333Y-102594342D02*
X148523333Y-102356247D01*
X148523333Y-102356247D02*
X148475714Y-102261009D01*
X148475714Y-102261009D02*
X148428095Y-102213390D01*
X148428095Y-102213390D02*
X148332857Y-102165771D01*
X148332857Y-102165771D02*
X148142381Y-102165771D01*
X148142381Y-102165771D02*
X148047143Y-102213390D01*
X148047143Y-102213390D02*
X147999524Y-102261009D01*
X147999524Y-102261009D02*
X147951905Y-102356247D01*
X148904286Y-101880057D02*
X148951905Y-101832438D01*
X148951905Y-101832438D02*
X149047143Y-101784819D01*
X149047143Y-101784819D02*
X149285238Y-101784819D01*
X149285238Y-101784819D02*
X149380476Y-101832438D01*
X149380476Y-101832438D02*
X149428095Y-101880057D01*
X149428095Y-101880057D02*
X149475714Y-101975295D01*
X149475714Y-101975295D02*
X149475714Y-102070533D01*
X149475714Y-102070533D02*
X149428095Y-102213390D01*
X149428095Y-102213390D02*
X148856667Y-102784819D01*
X148856667Y-102784819D02*
X149475714Y-102784819D01*
X109784819Y-68238095D02*
X109784819Y-68809523D01*
X109784819Y-68523809D02*
X108784819Y-68523809D01*
X108784819Y-68523809D02*
X108927676Y-68619047D01*
X108927676Y-68619047D02*
X109022914Y-68714285D01*
X109022914Y-68714285D02*
X109070533Y-68809523D01*
X108880057Y-67857142D02*
X108832438Y-67809523D01*
X108832438Y-67809523D02*
X108784819Y-67714285D01*
X108784819Y-67714285D02*
X108784819Y-67476190D01*
X108784819Y-67476190D02*
X108832438Y-67380952D01*
X108832438Y-67380952D02*
X108880057Y-67333333D01*
X108880057Y-67333333D02*
X108975295Y-67285714D01*
X108975295Y-67285714D02*
X109070533Y-67285714D01*
X109070533Y-67285714D02*
X109213390Y-67333333D01*
X109213390Y-67333333D02*
X109784819Y-67904761D01*
X109784819Y-67904761D02*
X109784819Y-67285714D01*
X108784819Y-66666666D02*
X108784819Y-66571428D01*
X108784819Y-66571428D02*
X108832438Y-66476190D01*
X108832438Y-66476190D02*
X108880057Y-66428571D01*
X108880057Y-66428571D02*
X108975295Y-66380952D01*
X108975295Y-66380952D02*
X109165771Y-66333333D01*
X109165771Y-66333333D02*
X109403866Y-66333333D01*
X109403866Y-66333333D02*
X109594342Y-66380952D01*
X109594342Y-66380952D02*
X109689580Y-66428571D01*
X109689580Y-66428571D02*
X109737200Y-66476190D01*
X109737200Y-66476190D02*
X109784819Y-66571428D01*
X109784819Y-66571428D02*
X109784819Y-66666666D01*
X109784819Y-66666666D02*
X109737200Y-66761904D01*
X109737200Y-66761904D02*
X109689580Y-66809523D01*
X109689580Y-66809523D02*
X109594342Y-66857142D01*
X109594342Y-66857142D02*
X109403866Y-66904761D01*
X109403866Y-66904761D02*
X109165771Y-66904761D01*
X109165771Y-66904761D02*
X108975295Y-66857142D01*
X108975295Y-66857142D02*
X108880057Y-66809523D01*
X108880057Y-66809523D02*
X108832438Y-66761904D01*
X108832438Y-66761904D02*
X108784819Y-66666666D01*
X109784819Y-65952380D02*
X109784819Y-65714285D01*
X109784819Y-65714285D02*
X109594342Y-65714285D01*
X109594342Y-65714285D02*
X109546723Y-65809523D01*
X109546723Y-65809523D02*
X109451485Y-65904761D01*
X109451485Y-65904761D02*
X109308628Y-65952380D01*
X109308628Y-65952380D02*
X109070533Y-65952380D01*
X109070533Y-65952380D02*
X108927676Y-65904761D01*
X108927676Y-65904761D02*
X108832438Y-65809523D01*
X108832438Y-65809523D02*
X108784819Y-65666666D01*
X108784819Y-65666666D02*
X108784819Y-65476190D01*
X108784819Y-65476190D02*
X108832438Y-65333333D01*
X108832438Y-65333333D02*
X108927676Y-65238095D01*
X108927676Y-65238095D02*
X109070533Y-65190476D01*
X109070533Y-65190476D02*
X109308628Y-65190476D01*
X109308628Y-65190476D02*
X109451485Y-65238095D01*
X109451485Y-65238095D02*
X109546723Y-65333333D01*
X109546723Y-65333333D02*
X109594342Y-65428571D01*
X109594342Y-65428571D02*
X109784819Y-65428571D01*
X109784819Y-65428571D02*
X109784819Y-65190476D01*
X107166666Y-85454819D02*
X107166666Y-86169104D01*
X107166666Y-86169104D02*
X107119047Y-86311961D01*
X107119047Y-86311961D02*
X107023809Y-86407200D01*
X107023809Y-86407200D02*
X106880952Y-86454819D01*
X106880952Y-86454819D02*
X106785714Y-86454819D01*
X108166666Y-86454819D02*
X107595238Y-86454819D01*
X107880952Y-86454819D02*
X107880952Y-85454819D01*
X107880952Y-85454819D02*
X107785714Y-85597676D01*
X107785714Y-85597676D02*
X107690476Y-85692914D01*
X107690476Y-85692914D02*
X107595238Y-85740533D01*
X113428571Y-90114700D02*
X114571429Y-90114700D01*
X114000000Y-90686128D02*
X114000000Y-89543271D01*
X100428571Y-90114700D02*
X101571429Y-90114700D01*
X192166666Y-103454819D02*
X192166666Y-104169104D01*
X192166666Y-104169104D02*
X192119047Y-104311961D01*
X192119047Y-104311961D02*
X192023809Y-104407200D01*
X192023809Y-104407200D02*
X191880952Y-104454819D01*
X191880952Y-104454819D02*
X191785714Y-104454819D01*
X192547619Y-103454819D02*
X193214285Y-103454819D01*
X193214285Y-103454819D02*
X192785714Y-104454819D01*
X185428571Y-100114700D02*
X186571429Y-100114700D01*
X186000000Y-100686128D02*
X186000000Y-99543271D01*
X198428571Y-100114700D02*
X199571429Y-100114700D01*
X117413095Y-56819819D02*
X117413095Y-57629342D01*
X117413095Y-57629342D02*
X117460714Y-57724580D01*
X117460714Y-57724580D02*
X117508333Y-57772200D01*
X117508333Y-57772200D02*
X117603571Y-57819819D01*
X117603571Y-57819819D02*
X117794047Y-57819819D01*
X117794047Y-57819819D02*
X117889285Y-57772200D01*
X117889285Y-57772200D02*
X117936904Y-57724580D01*
X117936904Y-57724580D02*
X117984523Y-57629342D01*
X117984523Y-57629342D02*
X117984523Y-56819819D01*
X118365476Y-56819819D02*
X118984523Y-56819819D01*
X118984523Y-56819819D02*
X118651190Y-57200771D01*
X118651190Y-57200771D02*
X118794047Y-57200771D01*
X118794047Y-57200771D02*
X118889285Y-57248390D01*
X118889285Y-57248390D02*
X118936904Y-57296009D01*
X118936904Y-57296009D02*
X118984523Y-57391247D01*
X118984523Y-57391247D02*
X118984523Y-57629342D01*
X118984523Y-57629342D02*
X118936904Y-57724580D01*
X118936904Y-57724580D02*
X118889285Y-57772200D01*
X118889285Y-57772200D02*
X118794047Y-57819819D01*
X118794047Y-57819819D02*
X118508333Y-57819819D01*
X118508333Y-57819819D02*
X118413095Y-57772200D01*
X118413095Y-57772200D02*
X118365476Y-57724580D01*
X277346666Y-99084819D02*
X277346666Y-99799104D01*
X277346666Y-99799104D02*
X277299047Y-99941961D01*
X277299047Y-99941961D02*
X277203809Y-100037200D01*
X277203809Y-100037200D02*
X277060952Y-100084819D01*
X277060952Y-100084819D02*
X276965714Y-100084819D01*
X278299047Y-99084819D02*
X277822857Y-99084819D01*
X277822857Y-99084819D02*
X277775238Y-99561009D01*
X277775238Y-99561009D02*
X277822857Y-99513390D01*
X277822857Y-99513390D02*
X277918095Y-99465771D01*
X277918095Y-99465771D02*
X278156190Y-99465771D01*
X278156190Y-99465771D02*
X278251428Y-99513390D01*
X278251428Y-99513390D02*
X278299047Y-99561009D01*
X278299047Y-99561009D02*
X278346666Y-99656247D01*
X278346666Y-99656247D02*
X278346666Y-99894342D01*
X278346666Y-99894342D02*
X278299047Y-99989580D01*
X278299047Y-99989580D02*
X278251428Y-100037200D01*
X278251428Y-100037200D02*
X278156190Y-100084819D01*
X278156190Y-100084819D02*
X277918095Y-100084819D01*
X277918095Y-100084819D02*
X277822857Y-100037200D01*
X277822857Y-100037200D02*
X277775238Y-99989580D01*
X198428571Y-120114700D02*
X199571429Y-120114700D01*
X185428571Y-120114700D02*
X186571429Y-120114700D01*
X186000000Y-120686128D02*
X186000000Y-119543271D01*
X192166666Y-113454819D02*
X192166666Y-114169104D01*
X192166666Y-114169104D02*
X192119047Y-114311961D01*
X192119047Y-114311961D02*
X192023809Y-114407200D01*
X192023809Y-114407200D02*
X191880952Y-114454819D01*
X191880952Y-114454819D02*
X191785714Y-114454819D01*
X193071428Y-113454819D02*
X192880952Y-113454819D01*
X192880952Y-113454819D02*
X192785714Y-113502438D01*
X192785714Y-113502438D02*
X192738095Y-113550057D01*
X192738095Y-113550057D02*
X192642857Y-113692914D01*
X192642857Y-113692914D02*
X192595238Y-113883390D01*
X192595238Y-113883390D02*
X192595238Y-114264342D01*
X192595238Y-114264342D02*
X192642857Y-114359580D01*
X192642857Y-114359580D02*
X192690476Y-114407200D01*
X192690476Y-114407200D02*
X192785714Y-114454819D01*
X192785714Y-114454819D02*
X192976190Y-114454819D01*
X192976190Y-114454819D02*
X193071428Y-114407200D01*
X193071428Y-114407200D02*
X193119047Y-114359580D01*
X193119047Y-114359580D02*
X193166666Y-114264342D01*
X193166666Y-114264342D02*
X193166666Y-114026247D01*
X193166666Y-114026247D02*
X193119047Y-113931009D01*
X193119047Y-113931009D02*
X193071428Y-113883390D01*
X193071428Y-113883390D02*
X192976190Y-113835771D01*
X192976190Y-113835771D02*
X192785714Y-113835771D01*
X192785714Y-113835771D02*
X192690476Y-113883390D01*
X192690476Y-113883390D02*
X192642857Y-113931009D01*
X192642857Y-113931009D02*
X192595238Y-114026247D01*
X198428571Y-110114700D02*
X199571429Y-110114700D01*
X185428571Y-110114700D02*
X186571429Y-110114700D01*
X186000000Y-110686128D02*
X186000000Y-109543271D01*
X107166666Y-105454819D02*
X107166666Y-106169104D01*
X107166666Y-106169104D02*
X107119047Y-106311961D01*
X107119047Y-106311961D02*
X107023809Y-106407200D01*
X107023809Y-106407200D02*
X106880952Y-106454819D01*
X106880952Y-106454819D02*
X106785714Y-106454819D01*
X107547619Y-105454819D02*
X108166666Y-105454819D01*
X108166666Y-105454819D02*
X107833333Y-105835771D01*
X107833333Y-105835771D02*
X107976190Y-105835771D01*
X107976190Y-105835771D02*
X108071428Y-105883390D01*
X108071428Y-105883390D02*
X108119047Y-105931009D01*
X108119047Y-105931009D02*
X108166666Y-106026247D01*
X108166666Y-106026247D02*
X108166666Y-106264342D01*
X108166666Y-106264342D02*
X108119047Y-106359580D01*
X108119047Y-106359580D02*
X108071428Y-106407200D01*
X108071428Y-106407200D02*
X107976190Y-106454819D01*
X107976190Y-106454819D02*
X107690476Y-106454819D01*
X107690476Y-106454819D02*
X107595238Y-106407200D01*
X107595238Y-106407200D02*
X107547619Y-106359580D01*
X113428571Y-110114700D02*
X114571429Y-110114700D01*
X114000000Y-110686128D02*
X114000000Y-109543271D01*
X100428571Y-110114700D02*
X101571429Y-110114700D01*
D11*
%TO.C,0.1\u03BCF*%
X148880000Y-52130000D02*
X148945000Y-52130000D01*
X148880000Y-55370000D02*
X148880000Y-52130000D01*
X148880000Y-55370000D02*
X148945000Y-55370000D01*
X151055000Y-52130000D02*
X151120000Y-52130000D01*
X151055000Y-55370000D02*
X151120000Y-55370000D01*
X151120000Y-55370000D02*
X151120000Y-52130000D01*
%TO.C,J4*%
X102290000Y-118590000D02*
X102290000Y-121410000D01*
X102290000Y-118590000D02*
X103990000Y-117290000D01*
X102290000Y-121410000D02*
X103990000Y-122710000D01*
X103990000Y-117290000D02*
X112710000Y-117290000D01*
X103990000Y-122710000D02*
X112710000Y-122710000D01*
X112710000Y-117290000D02*
X112710000Y-122710000D01*
%TO.C,0.1\u03BCF*%
X138880000Y-52130000D02*
X138945000Y-52130000D01*
X138880000Y-55370000D02*
X138880000Y-52130000D01*
X138880000Y-55370000D02*
X138945000Y-55370000D01*
X141055000Y-52130000D02*
X141120000Y-52130000D01*
X141055000Y-55370000D02*
X141120000Y-55370000D01*
X141120000Y-55370000D02*
X141120000Y-52130000D01*
%TO.C,J2*%
X102290000Y-98590000D02*
X102290000Y-101410000D01*
X102290000Y-98590000D02*
X103990000Y-97290000D01*
X102290000Y-101410000D02*
X103990000Y-102710000D01*
X103990000Y-97290000D02*
X112710000Y-97290000D01*
X103990000Y-102710000D02*
X112710000Y-102710000D01*
X112710000Y-97290000D02*
X112710000Y-102710000D01*
%TO.C,J8*%
X187290000Y-92710000D02*
X187290000Y-87290000D01*
X196010000Y-87290000D02*
X187290000Y-87290000D01*
X196010000Y-92710000D02*
X187290000Y-92710000D01*
X197710000Y-88590000D02*
X196010000Y-87290000D01*
X197710000Y-91410000D02*
X196010000Y-92710000D01*
X197710000Y-91410000D02*
X197710000Y-88590000D01*
%TO.C,MCP2562*%
X143540000Y-91050000D02*
X143540000Y-101330000D01*
X143540000Y-101330000D02*
X145190000Y-101330000D01*
X147190000Y-101330000D02*
X148840000Y-101330000D01*
X148840000Y-91050000D02*
X143540000Y-91050000D01*
X148840000Y-101330000D02*
X148840000Y-91050000D01*
X145190000Y-101330000D02*
G75*
G02*
X147190000Y-101330000I1000000J0D01*
G01*
%TO.C,120\u03A9*%
X110330000Y-63730000D02*
X110330000Y-70270000D01*
X110330000Y-70270000D02*
X113070000Y-70270000D01*
X111700000Y-62960000D02*
X111700000Y-63730000D01*
X111700000Y-71040000D02*
X111700000Y-70270000D01*
X113070000Y-63730000D02*
X110330000Y-63730000D01*
X113070000Y-70270000D02*
X113070000Y-63730000D01*
%TO.C,J1*%
X102290000Y-88590000D02*
X102290000Y-91410000D01*
X102290000Y-88590000D02*
X103990000Y-87290000D01*
X102290000Y-91410000D02*
X103990000Y-92710000D01*
X103990000Y-87290000D02*
X112710000Y-87290000D01*
X103990000Y-92710000D02*
X112710000Y-92710000D01*
X112710000Y-87290000D02*
X112710000Y-92710000D01*
%TO.C,J7*%
X187290000Y-102710000D02*
X187290000Y-97290000D01*
X196010000Y-97290000D02*
X187290000Y-97290000D01*
X196010000Y-102710000D02*
X187290000Y-102710000D01*
X197710000Y-98590000D02*
X196010000Y-97290000D01*
X197710000Y-101410000D02*
X196010000Y-102710000D01*
X197710000Y-101410000D02*
X197710000Y-98590000D01*
D12*
%TO.C,U3*%
X115000000Y-137750000D02*
X115000000Y-60250000D01*
X116500000Y-58750000D02*
X183500000Y-58750000D01*
X117020000Y-89220000D02*
X117020000Y-137480000D01*
X117020000Y-137480000D02*
X122020000Y-137480000D01*
X122020000Y-89220000D02*
X117020000Y-89220000D01*
X122020000Y-137480000D02*
X122020000Y-89220000D01*
X124620000Y-99130000D02*
X124620000Y-119950000D01*
X124620000Y-119950000D02*
X127120000Y-119950000D01*
X124620000Y-121990000D02*
X124620000Y-137730000D01*
X124620000Y-137730000D02*
X127120000Y-137730000D01*
X126000000Y-139250000D02*
X116500000Y-139250000D01*
X127120000Y-99130000D02*
X124620000Y-99130000D01*
X127120000Y-119950000D02*
X127120000Y-99130000D01*
X127120000Y-121990000D02*
X124620000Y-121990000D01*
X127120000Y-137730000D02*
X127120000Y-121990000D01*
X128000000Y-141250000D02*
X126000000Y-139250000D01*
X161000000Y-141250000D02*
X128000000Y-141250000D01*
X163000000Y-139250000D02*
X161000000Y-141250000D01*
X172880000Y-89990000D02*
X172880000Y-115890000D01*
X172880000Y-115890000D02*
X175380000Y-115890000D01*
X172880000Y-116910000D02*
X172880000Y-137730000D01*
X172880000Y-137730000D02*
X175380000Y-137730000D01*
X175380000Y-89990000D02*
X172880000Y-89990000D01*
X175380000Y-115890000D02*
X175380000Y-89990000D01*
X175380000Y-116910000D02*
X172880000Y-116910000D01*
X175380000Y-137730000D02*
X175380000Y-116910000D01*
X177980000Y-89220000D02*
X177980000Y-137480000D01*
X177980000Y-137480000D02*
X182980000Y-137480000D01*
X182980000Y-89220000D02*
X177980000Y-89220000D01*
X182980000Y-137480000D02*
X182980000Y-89220000D01*
X183500000Y-139250000D02*
X163000000Y-139250000D01*
X185000000Y-60250000D02*
X185000000Y-137750000D01*
X115000000Y-60250000D02*
G75*
G02*
X116500000Y-58750000I1500001J-1D01*
G01*
X116500000Y-139250000D02*
G75*
G02*
X115000000Y-137750000I1J1500001D01*
G01*
X183500000Y-58750000D02*
G75*
G02*
X185000000Y-60250000I0J-1500000D01*
G01*
X185000000Y-137750000D02*
G75*
G02*
X183500000Y-139250000I-1500000J0D01*
G01*
D13*
X116600000Y-90490000D02*
G75*
G02*
X116400000Y-90490000I-100000J0D01*
G01*
X116400000Y-90490000D02*
G75*
G02*
X116600000Y-90490000I100000J0D01*
G01*
X124220000Y-100650000D02*
G75*
G02*
X124020000Y-100650000I-100000J0D01*
G01*
X124020000Y-100650000D02*
G75*
G02*
X124220000Y-100650000I100000J0D01*
G01*
X124220000Y-123510000D02*
G75*
G02*
X124020000Y-123510000I-100000J0D01*
G01*
X124020000Y-123510000D02*
G75*
G02*
X124220000Y-123510000I100000J0D01*
G01*
X175980000Y-114370000D02*
G75*
G02*
X175780000Y-114370000I-100000J0D01*
G01*
X175780000Y-114370000D02*
G75*
G02*
X175980000Y-114370000I100000J0D01*
G01*
X175980000Y-136210000D02*
G75*
G02*
X175780000Y-136210000I-100000J0D01*
G01*
X175780000Y-136210000D02*
G75*
G02*
X175980000Y-136210000I100000J0D01*
G01*
X177560000Y-90490000D02*
G75*
G02*
X177360000Y-90490000I-100000J0D01*
G01*
X177360000Y-90490000D02*
G75*
G02*
X177560000Y-90490000I100000J0D01*
G01*
D11*
%TO.C,J5*%
X187290000Y-122710000D02*
X187290000Y-117290000D01*
X196010000Y-117290000D02*
X187290000Y-117290000D01*
X196010000Y-122710000D02*
X187290000Y-122710000D01*
X197710000Y-118590000D02*
X196010000Y-117290000D01*
X197710000Y-121410000D02*
X196010000Y-122710000D01*
X197710000Y-121410000D02*
X197710000Y-118590000D01*
%TO.C,J6*%
X187290000Y-112710000D02*
X187290000Y-107290000D01*
X196010000Y-107290000D02*
X187290000Y-107290000D01*
X196010000Y-112710000D02*
X187290000Y-112710000D01*
X197710000Y-108590000D02*
X196010000Y-107290000D01*
X197710000Y-111410000D02*
X196010000Y-112710000D01*
X197710000Y-111410000D02*
X197710000Y-108590000D01*
%TO.C,J3*%
X102290000Y-108590000D02*
X102290000Y-111410000D01*
X102290000Y-108590000D02*
X103990000Y-107290000D01*
X102290000Y-111410000D02*
X103990000Y-112710000D01*
X103990000Y-107290000D02*
X112710000Y-107290000D01*
X103990000Y-112710000D02*
X112710000Y-112710000D01*
X112710000Y-107290000D02*
X112710000Y-112710000D01*
%TD*%
M02*
