%TF.GenerationSoftware,KiCad,Pcbnew,8.0.6-8.0.6-0~ubuntu22.04.1*%
%TF.CreationDate,2024-12-10T00:27:48+09:00*%
%TF.ProjectId,FastCANDriver,46617374-4341-44e4-9472-697665722e6b,rev?*%
%TF.SameCoordinates,Original*%
%TF.FileFunction,Legend,Bot*%
%TF.FilePolarity,Positive*%
%FSLAX46Y46*%
G04 Gerber Fmt 4.6, Leading zero omitted, Abs format (unit mm)*
G04 Created by KiCad (PCBNEW 8.0.6-8.0.6-0~ubuntu22.04.1) date 2024-12-10 00:27:48*
%MOMM*%
%LPD*%
G01*
G04 APERTURE LIST*
%ADD10C,0.100000*%
%ADD11C,0.000000*%
G04 APERTURE END LIST*
D10*
X101888728Y-93214287D02*
X101888728Y-93500001D01*
X101888728Y-93500001D02*
X101817300Y-93642858D01*
X101817300Y-93642858D02*
X101745871Y-93714287D01*
X101745871Y-93714287D02*
X101531585Y-93857144D01*
X101531585Y-93857144D02*
X101245871Y-93928573D01*
X101245871Y-93928573D02*
X100674442Y-93928573D01*
X100674442Y-93928573D02*
X100531585Y-93857144D01*
X100531585Y-93857144D02*
X100460157Y-93785716D01*
X100460157Y-93785716D02*
X100388728Y-93642858D01*
X100388728Y-93642858D02*
X100388728Y-93357144D01*
X100388728Y-93357144D02*
X100460157Y-93214287D01*
X100460157Y-93214287D02*
X100531585Y-93142858D01*
X100531585Y-93142858D02*
X100674442Y-93071430D01*
X100674442Y-93071430D02*
X101031585Y-93071430D01*
X101031585Y-93071430D02*
X101174442Y-93142858D01*
X101174442Y-93142858D02*
X101245871Y-93214287D01*
X101245871Y-93214287D02*
X101317300Y-93357144D01*
X101317300Y-93357144D02*
X101317300Y-93642858D01*
X101317300Y-93642858D02*
X101245871Y-93785716D01*
X101245871Y-93785716D02*
X101174442Y-93857144D01*
X101174442Y-93857144D02*
X101031585Y-93928573D01*
X100388728Y-94857144D02*
X100388728Y-95000001D01*
X100388728Y-95000001D02*
X100460157Y-95142858D01*
X100460157Y-95142858D02*
X100531585Y-95214287D01*
X100531585Y-95214287D02*
X100674442Y-95285715D01*
X100674442Y-95285715D02*
X100960157Y-95357144D01*
X100960157Y-95357144D02*
X101317300Y-95357144D01*
X101317300Y-95357144D02*
X101603014Y-95285715D01*
X101603014Y-95285715D02*
X101745871Y-95214287D01*
X101745871Y-95214287D02*
X101817300Y-95142858D01*
X101817300Y-95142858D02*
X101888728Y-95000001D01*
X101888728Y-95000001D02*
X101888728Y-94857144D01*
X101888728Y-94857144D02*
X101817300Y-94714287D01*
X101817300Y-94714287D02*
X101745871Y-94642858D01*
X101745871Y-94642858D02*
X101603014Y-94571429D01*
X101603014Y-94571429D02*
X101317300Y-94500001D01*
X101317300Y-94500001D02*
X100960157Y-94500001D01*
X100960157Y-94500001D02*
X100674442Y-94571429D01*
X100674442Y-94571429D02*
X100531585Y-94642858D01*
X100531585Y-94642858D02*
X100460157Y-94714287D01*
X100460157Y-94714287D02*
X100388728Y-94857144D01*
X101745871Y-96000000D02*
X101817300Y-96071429D01*
X101817300Y-96071429D02*
X101888728Y-96000000D01*
X101888728Y-96000000D02*
X101817300Y-95928572D01*
X101817300Y-95928572D02*
X101745871Y-96000000D01*
X101745871Y-96000000D02*
X101888728Y-96000000D01*
X100388728Y-97000001D02*
X100388728Y-97142858D01*
X100388728Y-97142858D02*
X100460157Y-97285715D01*
X100460157Y-97285715D02*
X100531585Y-97357144D01*
X100531585Y-97357144D02*
X100674442Y-97428572D01*
X100674442Y-97428572D02*
X100960157Y-97500001D01*
X100960157Y-97500001D02*
X101317300Y-97500001D01*
X101317300Y-97500001D02*
X101603014Y-97428572D01*
X101603014Y-97428572D02*
X101745871Y-97357144D01*
X101745871Y-97357144D02*
X101817300Y-97285715D01*
X101817300Y-97285715D02*
X101888728Y-97142858D01*
X101888728Y-97142858D02*
X101888728Y-97000001D01*
X101888728Y-97000001D02*
X101817300Y-96857144D01*
X101817300Y-96857144D02*
X101745871Y-96785715D01*
X101745871Y-96785715D02*
X101603014Y-96714286D01*
X101603014Y-96714286D02*
X101317300Y-96642858D01*
X101317300Y-96642858D02*
X100960157Y-96642858D01*
X100960157Y-96642858D02*
X100674442Y-96714286D01*
X100674442Y-96714286D02*
X100531585Y-96785715D01*
X100531585Y-96785715D02*
X100460157Y-96857144D01*
X100460157Y-96857144D02*
X100388728Y-97000001D01*
X100388728Y-98428572D02*
X100388728Y-98571429D01*
X100388728Y-98571429D02*
X100460157Y-98714286D01*
X100460157Y-98714286D02*
X100531585Y-98785715D01*
X100531585Y-98785715D02*
X100674442Y-98857143D01*
X100674442Y-98857143D02*
X100960157Y-98928572D01*
X100960157Y-98928572D02*
X101317300Y-98928572D01*
X101317300Y-98928572D02*
X101603014Y-98857143D01*
X101603014Y-98857143D02*
X101745871Y-98785715D01*
X101745871Y-98785715D02*
X101817300Y-98714286D01*
X101817300Y-98714286D02*
X101888728Y-98571429D01*
X101888728Y-98571429D02*
X101888728Y-98428572D01*
X101888728Y-98428572D02*
X101817300Y-98285715D01*
X101817300Y-98285715D02*
X101745871Y-98214286D01*
X101745871Y-98214286D02*
X101603014Y-98142857D01*
X101603014Y-98142857D02*
X101317300Y-98071429D01*
X101317300Y-98071429D02*
X100960157Y-98071429D01*
X100960157Y-98071429D02*
X100674442Y-98142857D01*
X100674442Y-98142857D02*
X100531585Y-98214286D01*
X100531585Y-98214286D02*
X100460157Y-98285715D01*
X100460157Y-98285715D02*
X100388728Y-98428572D01*
X100388728Y-99857143D02*
X100388728Y-100000000D01*
X100388728Y-100000000D02*
X100460157Y-100142857D01*
X100460157Y-100142857D02*
X100531585Y-100214286D01*
X100531585Y-100214286D02*
X100674442Y-100285714D01*
X100674442Y-100285714D02*
X100960157Y-100357143D01*
X100960157Y-100357143D02*
X101317300Y-100357143D01*
X101317300Y-100357143D02*
X101603014Y-100285714D01*
X101603014Y-100285714D02*
X101745871Y-100214286D01*
X101745871Y-100214286D02*
X101817300Y-100142857D01*
X101817300Y-100142857D02*
X101888728Y-100000000D01*
X101888728Y-100000000D02*
X101888728Y-99857143D01*
X101888728Y-99857143D02*
X101817300Y-99714286D01*
X101817300Y-99714286D02*
X101745871Y-99642857D01*
X101745871Y-99642857D02*
X101603014Y-99571428D01*
X101603014Y-99571428D02*
X101317300Y-99500000D01*
X101317300Y-99500000D02*
X100960157Y-99500000D01*
X100960157Y-99500000D02*
X100674442Y-99571428D01*
X100674442Y-99571428D02*
X100531585Y-99642857D01*
X100531585Y-99642857D02*
X100460157Y-99714286D01*
X100460157Y-99714286D02*
X100388728Y-99857143D01*
X100388728Y-101285714D02*
X100388728Y-101428571D01*
X100388728Y-101428571D02*
X100460157Y-101571428D01*
X100460157Y-101571428D02*
X100531585Y-101642857D01*
X100531585Y-101642857D02*
X100674442Y-101714285D01*
X100674442Y-101714285D02*
X100960157Y-101785714D01*
X100960157Y-101785714D02*
X101317300Y-101785714D01*
X101317300Y-101785714D02*
X101603014Y-101714285D01*
X101603014Y-101714285D02*
X101745871Y-101642857D01*
X101745871Y-101642857D02*
X101817300Y-101571428D01*
X101817300Y-101571428D02*
X101888728Y-101428571D01*
X101888728Y-101428571D02*
X101888728Y-101285714D01*
X101888728Y-101285714D02*
X101817300Y-101142857D01*
X101817300Y-101142857D02*
X101745871Y-101071428D01*
X101745871Y-101071428D02*
X101603014Y-100999999D01*
X101603014Y-100999999D02*
X101317300Y-100928571D01*
X101317300Y-100928571D02*
X100960157Y-100928571D01*
X100960157Y-100928571D02*
X100674442Y-100999999D01*
X100674442Y-100999999D02*
X100531585Y-101071428D01*
X100531585Y-101071428D02*
X100460157Y-101142857D01*
X100460157Y-101142857D02*
X100388728Y-101285714D01*
X101888728Y-103571427D02*
X100888728Y-103571427D01*
X101031585Y-103571427D02*
X100960157Y-103642856D01*
X100960157Y-103642856D02*
X100888728Y-103785713D01*
X100888728Y-103785713D02*
X100888728Y-103999999D01*
X100888728Y-103999999D02*
X100960157Y-104142856D01*
X100960157Y-104142856D02*
X101103014Y-104214285D01*
X101103014Y-104214285D02*
X101888728Y-104214285D01*
X101103014Y-104214285D02*
X100960157Y-104285713D01*
X100960157Y-104285713D02*
X100888728Y-104428570D01*
X100888728Y-104428570D02*
X100888728Y-104642856D01*
X100888728Y-104642856D02*
X100960157Y-104785713D01*
X100960157Y-104785713D02*
X101103014Y-104857142D01*
X101103014Y-104857142D02*
X101888728Y-104857142D01*
X101888728Y-105571427D02*
X100888728Y-105571427D01*
X101031585Y-105571427D02*
X100960157Y-105642856D01*
X100960157Y-105642856D02*
X100888728Y-105785713D01*
X100888728Y-105785713D02*
X100888728Y-105999999D01*
X100888728Y-105999999D02*
X100960157Y-106142856D01*
X100960157Y-106142856D02*
X101103014Y-106214285D01*
X101103014Y-106214285D02*
X101888728Y-106214285D01*
X101103014Y-106214285D02*
X100960157Y-106285713D01*
X100960157Y-106285713D02*
X100888728Y-106428570D01*
X100888728Y-106428570D02*
X100888728Y-106642856D01*
X100888728Y-106642856D02*
X100960157Y-106785713D01*
X100960157Y-106785713D02*
X101103014Y-106857142D01*
X101103014Y-106857142D02*
X101888728Y-106857142D01*
X104500000Y-55000000D02*
X102213580Y-55000000D01*
X104500000Y-145000000D02*
X102213580Y-145000000D01*
X102800000Y-55000000D02*
X102800000Y-145000000D01*
X102800000Y-55000000D02*
X102800000Y-145000000D01*
X102800000Y-55000000D02*
X103386421Y-56126504D01*
X102800000Y-55000000D02*
X102213579Y-56126504D01*
X102800000Y-145000000D02*
X102213579Y-143873496D01*
X102800000Y-145000000D02*
X103386421Y-143873496D01*
X156785712Y-147788728D02*
X156499998Y-147788728D01*
X156499998Y-147788728D02*
X156357141Y-147717300D01*
X156357141Y-147717300D02*
X156285712Y-147645871D01*
X156285712Y-147645871D02*
X156142855Y-147431585D01*
X156142855Y-147431585D02*
X156071426Y-147145871D01*
X156071426Y-147145871D02*
X156071426Y-146574442D01*
X156071426Y-146574442D02*
X156142855Y-146431585D01*
X156142855Y-146431585D02*
X156214284Y-146360157D01*
X156214284Y-146360157D02*
X156357141Y-146288728D01*
X156357141Y-146288728D02*
X156642855Y-146288728D01*
X156642855Y-146288728D02*
X156785712Y-146360157D01*
X156785712Y-146360157D02*
X156857141Y-146431585D01*
X156857141Y-146431585D02*
X156928569Y-146574442D01*
X156928569Y-146574442D02*
X156928569Y-146931585D01*
X156928569Y-146931585D02*
X156857141Y-147074442D01*
X156857141Y-147074442D02*
X156785712Y-147145871D01*
X156785712Y-147145871D02*
X156642855Y-147217300D01*
X156642855Y-147217300D02*
X156357141Y-147217300D01*
X156357141Y-147217300D02*
X156214284Y-147145871D01*
X156214284Y-147145871D02*
X156142855Y-147074442D01*
X156142855Y-147074442D02*
X156071426Y-146931585D01*
X155142855Y-146288728D02*
X154999998Y-146288728D01*
X154999998Y-146288728D02*
X154857141Y-146360157D01*
X154857141Y-146360157D02*
X154785713Y-146431585D01*
X154785713Y-146431585D02*
X154714284Y-146574442D01*
X154714284Y-146574442D02*
X154642855Y-146860157D01*
X154642855Y-146860157D02*
X154642855Y-147217300D01*
X154642855Y-147217300D02*
X154714284Y-147503014D01*
X154714284Y-147503014D02*
X154785713Y-147645871D01*
X154785713Y-147645871D02*
X154857141Y-147717300D01*
X154857141Y-147717300D02*
X154999998Y-147788728D01*
X154999998Y-147788728D02*
X155142855Y-147788728D01*
X155142855Y-147788728D02*
X155285713Y-147717300D01*
X155285713Y-147717300D02*
X155357141Y-147645871D01*
X155357141Y-147645871D02*
X155428570Y-147503014D01*
X155428570Y-147503014D02*
X155499998Y-147217300D01*
X155499998Y-147217300D02*
X155499998Y-146860157D01*
X155499998Y-146860157D02*
X155428570Y-146574442D01*
X155428570Y-146574442D02*
X155357141Y-146431585D01*
X155357141Y-146431585D02*
X155285713Y-146360157D01*
X155285713Y-146360157D02*
X155142855Y-146288728D01*
X153999999Y-147645871D02*
X153928570Y-147717300D01*
X153928570Y-147717300D02*
X153999999Y-147788728D01*
X153999999Y-147788728D02*
X154071427Y-147717300D01*
X154071427Y-147717300D02*
X153999999Y-147645871D01*
X153999999Y-147645871D02*
X153999999Y-147788728D01*
X152999998Y-146288728D02*
X152857141Y-146288728D01*
X152857141Y-146288728D02*
X152714284Y-146360157D01*
X152714284Y-146360157D02*
X152642856Y-146431585D01*
X152642856Y-146431585D02*
X152571427Y-146574442D01*
X152571427Y-146574442D02*
X152499998Y-146860157D01*
X152499998Y-146860157D02*
X152499998Y-147217300D01*
X152499998Y-147217300D02*
X152571427Y-147503014D01*
X152571427Y-147503014D02*
X152642856Y-147645871D01*
X152642856Y-147645871D02*
X152714284Y-147717300D01*
X152714284Y-147717300D02*
X152857141Y-147788728D01*
X152857141Y-147788728D02*
X152999998Y-147788728D01*
X152999998Y-147788728D02*
X153142856Y-147717300D01*
X153142856Y-147717300D02*
X153214284Y-147645871D01*
X153214284Y-147645871D02*
X153285713Y-147503014D01*
X153285713Y-147503014D02*
X153357141Y-147217300D01*
X153357141Y-147217300D02*
X153357141Y-146860157D01*
X153357141Y-146860157D02*
X153285713Y-146574442D01*
X153285713Y-146574442D02*
X153214284Y-146431585D01*
X153214284Y-146431585D02*
X153142856Y-146360157D01*
X153142856Y-146360157D02*
X152999998Y-146288728D01*
X151571427Y-146288728D02*
X151428570Y-146288728D01*
X151428570Y-146288728D02*
X151285713Y-146360157D01*
X151285713Y-146360157D02*
X151214285Y-146431585D01*
X151214285Y-146431585D02*
X151142856Y-146574442D01*
X151142856Y-146574442D02*
X151071427Y-146860157D01*
X151071427Y-146860157D02*
X151071427Y-147217300D01*
X151071427Y-147217300D02*
X151142856Y-147503014D01*
X151142856Y-147503014D02*
X151214285Y-147645871D01*
X151214285Y-147645871D02*
X151285713Y-147717300D01*
X151285713Y-147717300D02*
X151428570Y-147788728D01*
X151428570Y-147788728D02*
X151571427Y-147788728D01*
X151571427Y-147788728D02*
X151714285Y-147717300D01*
X151714285Y-147717300D02*
X151785713Y-147645871D01*
X151785713Y-147645871D02*
X151857142Y-147503014D01*
X151857142Y-147503014D02*
X151928570Y-147217300D01*
X151928570Y-147217300D02*
X151928570Y-146860157D01*
X151928570Y-146860157D02*
X151857142Y-146574442D01*
X151857142Y-146574442D02*
X151785713Y-146431585D01*
X151785713Y-146431585D02*
X151714285Y-146360157D01*
X151714285Y-146360157D02*
X151571427Y-146288728D01*
X150142856Y-146288728D02*
X149999999Y-146288728D01*
X149999999Y-146288728D02*
X149857142Y-146360157D01*
X149857142Y-146360157D02*
X149785714Y-146431585D01*
X149785714Y-146431585D02*
X149714285Y-146574442D01*
X149714285Y-146574442D02*
X149642856Y-146860157D01*
X149642856Y-146860157D02*
X149642856Y-147217300D01*
X149642856Y-147217300D02*
X149714285Y-147503014D01*
X149714285Y-147503014D02*
X149785714Y-147645871D01*
X149785714Y-147645871D02*
X149857142Y-147717300D01*
X149857142Y-147717300D02*
X149999999Y-147788728D01*
X149999999Y-147788728D02*
X150142856Y-147788728D01*
X150142856Y-147788728D02*
X150285714Y-147717300D01*
X150285714Y-147717300D02*
X150357142Y-147645871D01*
X150357142Y-147645871D02*
X150428571Y-147503014D01*
X150428571Y-147503014D02*
X150499999Y-147217300D01*
X150499999Y-147217300D02*
X150499999Y-146860157D01*
X150499999Y-146860157D02*
X150428571Y-146574442D01*
X150428571Y-146574442D02*
X150357142Y-146431585D01*
X150357142Y-146431585D02*
X150285714Y-146360157D01*
X150285714Y-146360157D02*
X150142856Y-146288728D01*
X148714285Y-146288728D02*
X148571428Y-146288728D01*
X148571428Y-146288728D02*
X148428571Y-146360157D01*
X148428571Y-146360157D02*
X148357143Y-146431585D01*
X148357143Y-146431585D02*
X148285714Y-146574442D01*
X148285714Y-146574442D02*
X148214285Y-146860157D01*
X148214285Y-146860157D02*
X148214285Y-147217300D01*
X148214285Y-147217300D02*
X148285714Y-147503014D01*
X148285714Y-147503014D02*
X148357143Y-147645871D01*
X148357143Y-147645871D02*
X148428571Y-147717300D01*
X148428571Y-147717300D02*
X148571428Y-147788728D01*
X148571428Y-147788728D02*
X148714285Y-147788728D01*
X148714285Y-147788728D02*
X148857143Y-147717300D01*
X148857143Y-147717300D02*
X148928571Y-147645871D01*
X148928571Y-147645871D02*
X149000000Y-147503014D01*
X149000000Y-147503014D02*
X149071428Y-147217300D01*
X149071428Y-147217300D02*
X149071428Y-146860157D01*
X149071428Y-146860157D02*
X149000000Y-146574442D01*
X149000000Y-146574442D02*
X148928571Y-146431585D01*
X148928571Y-146431585D02*
X148857143Y-146360157D01*
X148857143Y-146360157D02*
X148714285Y-146288728D01*
X146428572Y-147788728D02*
X146428572Y-146788728D01*
X146428572Y-146931585D02*
X146357143Y-146860157D01*
X146357143Y-146860157D02*
X146214286Y-146788728D01*
X146214286Y-146788728D02*
X146000000Y-146788728D01*
X146000000Y-146788728D02*
X145857143Y-146860157D01*
X145857143Y-146860157D02*
X145785715Y-147003014D01*
X145785715Y-147003014D02*
X145785715Y-147788728D01*
X145785715Y-147003014D02*
X145714286Y-146860157D01*
X145714286Y-146860157D02*
X145571429Y-146788728D01*
X145571429Y-146788728D02*
X145357143Y-146788728D01*
X145357143Y-146788728D02*
X145214286Y-146860157D01*
X145214286Y-146860157D02*
X145142857Y-147003014D01*
X145142857Y-147003014D02*
X145142857Y-147788728D01*
X144428572Y-147788728D02*
X144428572Y-146788728D01*
X144428572Y-146931585D02*
X144357143Y-146860157D01*
X144357143Y-146860157D02*
X144214286Y-146788728D01*
X144214286Y-146788728D02*
X144000000Y-146788728D01*
X144000000Y-146788728D02*
X143857143Y-146860157D01*
X143857143Y-146860157D02*
X143785715Y-147003014D01*
X143785715Y-147003014D02*
X143785715Y-147788728D01*
X143785715Y-147003014D02*
X143714286Y-146860157D01*
X143714286Y-146860157D02*
X143571429Y-146788728D01*
X143571429Y-146788728D02*
X143357143Y-146788728D01*
X143357143Y-146788728D02*
X143214286Y-146860157D01*
X143214286Y-146860157D02*
X143142857Y-147003014D01*
X143142857Y-147003014D02*
X143142857Y-147788728D01*
X105000000Y-145500000D02*
X105000000Y-149286420D01*
X195000000Y-145500000D02*
X195000000Y-149286420D01*
X105000000Y-148700000D02*
X195000000Y-148700000D01*
X105000000Y-148700000D02*
X195000000Y-148700000D01*
X105000000Y-148700000D02*
X106126504Y-148113579D01*
X105000000Y-148700000D02*
X106126504Y-149286421D01*
X195000000Y-148700000D02*
X193873496Y-149286421D01*
X195000000Y-148700000D02*
X193873496Y-148113579D01*
D11*
%TO.C,G\u002A\u002A\u002A*%
G36*
X174909851Y-75429571D02*
G01*
X174980437Y-75533000D01*
X174949008Y-75607060D01*
X174811104Y-75660000D01*
X174712357Y-75636428D01*
X174641770Y-75533000D01*
X174673200Y-75458939D01*
X174811104Y-75406000D01*
X174909851Y-75429571D01*
G37*
G36*
X189877417Y-58606593D02*
G01*
X189821498Y-58726479D01*
X189607443Y-58850187D01*
X189433640Y-58911439D01*
X189260642Y-58916217D01*
X189204437Y-58808510D01*
X189210050Y-58786442D01*
X189312299Y-58686872D01*
X189490632Y-58586134D01*
X189676059Y-58518073D01*
X189799590Y-58516536D01*
X189877417Y-58606593D01*
G37*
G36*
X174652626Y-70011548D02*
G01*
X174766740Y-70151455D01*
X174858271Y-70362779D01*
X174895770Y-70583983D01*
X174856301Y-70721741D01*
X174754492Y-70740991D01*
X174626300Y-70645999D01*
X174507757Y-70449273D01*
X174434101Y-70217736D01*
X174452843Y-70044478D01*
X174590844Y-69987333D01*
X174652626Y-70011548D01*
G37*
G36*
X184071144Y-69403396D02*
G01*
X184160325Y-69513949D01*
X184261383Y-69702984D01*
X184344145Y-69908696D01*
X184378437Y-70069280D01*
X184352963Y-70117112D01*
X184223309Y-70156666D01*
X184084315Y-70081849D01*
X183972947Y-69846363D01*
X183919952Y-69623380D01*
X183935800Y-69449728D01*
X184049088Y-69394666D01*
X184071144Y-69403396D01*
G37*
G36*
X183605991Y-69576769D02*
G01*
X183707227Y-69698015D01*
X183795399Y-69893437D01*
X183844651Y-70096253D01*
X183829127Y-70239678D01*
X183753953Y-70314411D01*
X183637095Y-70287796D01*
X183529675Y-70108821D01*
X183522658Y-70090025D01*
X183454781Y-69819699D01*
X183470503Y-69633402D01*
X183567538Y-69564000D01*
X183605991Y-69576769D01*
G37*
G36*
X175141637Y-69937639D02*
G01*
X175188065Y-69985636D01*
X175314815Y-70191587D01*
X175380821Y-70413921D01*
X175361316Y-70580195D01*
X175326108Y-70619669D01*
X175214009Y-70616657D01*
X175090032Y-70481545D01*
X174978840Y-70236495D01*
X174930895Y-70067325D01*
X174918027Y-69883766D01*
X174989385Y-69838498D01*
X175141637Y-69937639D01*
G37*
G36*
X175725917Y-69696223D02*
G01*
X175837660Y-69838884D01*
X175949354Y-70063029D01*
X176041673Y-70347166D01*
X176060576Y-70435461D01*
X176047741Y-70551749D01*
X175937958Y-70580000D01*
X175832375Y-70534050D01*
X175704474Y-70362087D01*
X175609981Y-70109429D01*
X175573104Y-69826099D01*
X175579595Y-69741327D01*
X175633453Y-69656540D01*
X175725917Y-69696223D01*
G37*
G36*
X176306924Y-69652440D02*
G01*
X176411988Y-69751675D01*
X176532886Y-69943376D01*
X176641602Y-70170670D01*
X176710118Y-70376681D01*
X176710417Y-70504535D01*
X176697381Y-70523955D01*
X176593963Y-70575541D01*
X176473478Y-70465937D01*
X176332095Y-70191980D01*
X176224792Y-69928207D01*
X176175770Y-69752396D01*
X176197926Y-69669471D01*
X176288809Y-69648666D01*
X176306924Y-69652440D01*
G37*
G36*
X189107036Y-59434808D02*
G01*
X189192983Y-59501339D01*
X189414547Y-59567534D01*
X189610837Y-59471733D01*
X189701900Y-59414268D01*
X189818270Y-59477743D01*
X189851538Y-59518080D01*
X189853796Y-59616926D01*
X189724224Y-59748676D01*
X189533422Y-59869201D01*
X189286649Y-59894077D01*
X189030365Y-59755854D01*
X188908209Y-59619901D01*
X188895750Y-59447996D01*
X188926338Y-59377403D01*
X188987963Y-59343732D01*
X189107036Y-59434808D01*
G37*
G36*
X188786416Y-73606359D02*
G01*
X188851621Y-73791410D01*
X188861722Y-73912255D01*
X188791598Y-74274632D01*
X188561936Y-74637474D01*
X188517317Y-74687820D01*
X188350220Y-74837690D01*
X188223244Y-74898000D01*
X188133947Y-74875713D01*
X188118571Y-74780205D01*
X188236353Y-74639366D01*
X188394740Y-74457400D01*
X188551120Y-74133614D01*
X188611770Y-73794482D01*
X188625761Y-73668435D01*
X188696143Y-73565560D01*
X188786416Y-73606359D01*
G37*
G36*
X189289884Y-74064581D02*
G01*
X189301557Y-74240708D01*
X189265011Y-74467238D01*
X189185909Y-74699169D01*
X189069911Y-74891503D01*
X189025317Y-74941823D01*
X188858224Y-75091690D01*
X188731244Y-75152000D01*
X188684796Y-75149662D01*
X188621337Y-75109676D01*
X188665381Y-75000754D01*
X188823437Y-74797892D01*
X188854654Y-74759425D01*
X188987438Y-74559438D01*
X189048000Y-74404670D01*
X189054001Y-74336543D01*
X189069526Y-74142935D01*
X189081643Y-74092431D01*
X189183630Y-73987713D01*
X189224330Y-73983854D01*
X189289884Y-74064581D01*
G37*
G36*
X189709892Y-56240610D02*
G01*
X189719454Y-56259310D01*
X189740995Y-56415090D01*
X189746301Y-56681013D01*
X189733970Y-57012166D01*
X189721678Y-57187327D01*
X189686604Y-57492653D01*
X189639228Y-57659808D01*
X189574559Y-57710666D01*
X189489531Y-57639918D01*
X189458437Y-57418089D01*
X189458437Y-57125511D01*
X189106563Y-57249659D01*
X189007990Y-57281963D01*
X188808544Y-57329604D01*
X188707391Y-57326509D01*
X188684554Y-57258545D01*
X188757780Y-57130725D01*
X188925466Y-57003413D01*
X189149231Y-56912567D01*
X189348061Y-56846651D01*
X189439049Y-56746114D01*
X189458437Y-56557731D01*
X189460511Y-56497228D01*
X189507965Y-56294878D01*
X189599406Y-56198855D01*
X189709892Y-56240610D01*
G37*
G36*
X182578655Y-64439054D02*
G01*
X183040052Y-64623029D01*
X183480611Y-64935338D01*
X183878850Y-65352262D01*
X184213291Y-65850079D01*
X184462452Y-66405068D01*
X184604855Y-66993510D01*
X184613751Y-67060835D01*
X184626784Y-67258040D01*
X184589072Y-67343890D01*
X184486405Y-67362666D01*
X184473256Y-67362432D01*
X184371573Y-67326187D01*
X184310079Y-67200377D01*
X184267905Y-66945123D01*
X184238354Y-66756975D01*
X184097456Y-66314659D01*
X183844247Y-65886827D01*
X183457015Y-65432991D01*
X183111098Y-65109621D01*
X182711383Y-64848526D01*
X182307407Y-64721800D01*
X181867246Y-64715025D01*
X181801942Y-64721475D01*
X181562630Y-64733426D01*
X181445885Y-64706278D01*
X181415104Y-64633428D01*
X181433350Y-64578937D01*
X181583823Y-64483692D01*
X181866093Y-64421556D01*
X182255730Y-64399333D01*
X182578655Y-64439054D01*
G37*
G36*
X177719651Y-64597426D02*
G01*
X177990739Y-64690918D01*
X178003300Y-64699300D01*
X178133708Y-64813988D01*
X178155691Y-64892931D01*
X178053610Y-64920939D01*
X177829575Y-64941724D01*
X177534512Y-64949666D01*
X177330530Y-64955170D01*
X176922296Y-65016488D01*
X176561126Y-65162728D01*
X176203961Y-65414946D01*
X175807746Y-65794202D01*
X175392338Y-66298320D01*
X175063698Y-66849034D01*
X174864747Y-67383833D01*
X174798840Y-67558178D01*
X174697041Y-67605237D01*
X174557874Y-67490594D01*
X174513985Y-67410785D01*
X174502528Y-67166807D01*
X174592999Y-66849037D01*
X174768084Y-66483576D01*
X175010466Y-66096527D01*
X175302828Y-65713993D01*
X175627854Y-65362077D01*
X175968229Y-65066881D01*
X176306635Y-64854507D01*
X176493549Y-64772674D01*
X176923977Y-64642877D01*
X177348370Y-64582937D01*
X177719651Y-64597426D01*
G37*
G36*
X189772302Y-60856385D02*
G01*
X189887900Y-60940977D01*
X190093437Y-61048420D01*
X190199419Y-61094573D01*
X190199695Y-61152292D01*
X190072270Y-61265361D01*
X189945170Y-61417998D01*
X189881770Y-61710626D01*
X189881588Y-61734162D01*
X189863649Y-61941054D01*
X189825326Y-62056888D01*
X189799170Y-62080819D01*
X189667595Y-62122477D01*
X189576897Y-62015085D01*
X189543104Y-61774666D01*
X189540682Y-61697056D01*
X189493374Y-61485479D01*
X189410820Y-61422622D01*
X189326288Y-61511093D01*
X189273048Y-61753500D01*
X189248676Y-61925939D01*
X189197465Y-62041484D01*
X189141319Y-62013917D01*
X189096042Y-61856917D01*
X189077437Y-61584166D01*
X189080254Y-61383263D01*
X189104160Y-61216583D01*
X189170795Y-61141760D01*
X189301649Y-61113708D01*
X189451445Y-61067118D01*
X189573181Y-60906796D01*
X189596454Y-60828474D01*
X189654082Y-60774743D01*
X189772302Y-60856385D01*
G37*
G36*
X189595689Y-65551263D02*
G01*
X189682774Y-65745064D01*
X189710881Y-66066746D01*
X189678830Y-66498870D01*
X189585437Y-67024000D01*
X189580549Y-67046219D01*
X189510131Y-67371092D01*
X189475411Y-67565653D01*
X189476389Y-67663289D01*
X189513064Y-67697386D01*
X189585437Y-67701333D01*
X189694727Y-67740055D01*
X189683357Y-67860219D01*
X189537975Y-68045128D01*
X189396474Y-68146232D01*
X189148314Y-68193295D01*
X189068800Y-68179280D01*
X188976003Y-68121710D01*
X188927282Y-67984372D01*
X188898926Y-67722500D01*
X188889108Y-67529767D01*
X188907655Y-67334620D01*
X188975236Y-67286667D01*
X189098150Y-67374913D01*
X189109420Y-67385649D01*
X189187545Y-67403511D01*
X189241439Y-67269079D01*
X189291060Y-67048200D01*
X189374898Y-66635788D01*
X189419395Y-66328514D01*
X189429395Y-66086055D01*
X189409742Y-65868090D01*
X189386401Y-65657434D01*
X189405711Y-65532899D01*
X189482099Y-65500000D01*
X189595689Y-65551263D01*
G37*
G36*
X189836245Y-63074059D02*
G01*
X189943265Y-63151614D01*
X189944101Y-63269113D01*
X189802961Y-63357269D01*
X189755273Y-63372166D01*
X189610186Y-63479806D01*
X189611212Y-63612699D01*
X189763270Y-63725231D01*
X189805270Y-63743192D01*
X189932592Y-63857442D01*
X189904850Y-63972666D01*
X189726972Y-64045388D01*
X189632730Y-64072812D01*
X189561062Y-64173474D01*
X189543104Y-64391110D01*
X189542437Y-64440949D01*
X189523748Y-64651438D01*
X189487394Y-64765487D01*
X189426083Y-64792669D01*
X189322385Y-64727508D01*
X189238784Y-64564810D01*
X189204437Y-64347631D01*
X189197517Y-64201000D01*
X189147638Y-64095389D01*
X189023270Y-64082831D01*
X188904207Y-64081121D01*
X188815309Y-64018971D01*
X188858074Y-63918549D01*
X189031256Y-63820694D01*
X189080514Y-63802348D01*
X189253353Y-63698485D01*
X189267803Y-63596363D01*
X189119770Y-63510333D01*
X189020193Y-63464879D01*
X188950437Y-63384630D01*
X188952589Y-63373891D01*
X189047453Y-63293496D01*
X189241064Y-63203046D01*
X189475610Y-63122809D01*
X189693275Y-63073057D01*
X189836245Y-63074059D01*
G37*
G36*
X178361495Y-68635121D02*
G01*
X178313944Y-68940464D01*
X178204393Y-69104729D01*
X178119617Y-69231846D01*
X177898055Y-69395098D01*
X177588428Y-69489157D01*
X177281914Y-69467400D01*
X177016252Y-69341215D01*
X176845119Y-69140666D01*
X177308770Y-69140666D01*
X177384882Y-69200353D01*
X177570910Y-69216030D01*
X177774437Y-69140666D01*
X177815949Y-69104729D01*
X177774005Y-69068628D01*
X177578940Y-69057296D01*
X177521675Y-69058129D01*
X177345679Y-69084345D01*
X177308770Y-69140666D01*
X176845119Y-69140666D01*
X176829181Y-69121988D01*
X176758437Y-68821108D01*
X176764647Y-68745419D01*
X176819844Y-68599391D01*
X177351104Y-68599391D01*
X177379262Y-68739140D01*
X177503504Y-68802000D01*
X177550902Y-68798994D01*
X177727139Y-68726761D01*
X177832563Y-68594805D01*
X177842457Y-68452207D01*
X177732104Y-68348048D01*
X177584396Y-68323300D01*
X177416740Y-68403897D01*
X177351104Y-68599391D01*
X176819844Y-68599391D01*
X176867555Y-68473167D01*
X177062646Y-68218108D01*
X177305155Y-68029183D01*
X177550320Y-67955333D01*
X177777875Y-67981509D01*
X178078022Y-68121026D01*
X178277708Y-68350436D01*
X178307661Y-68452207D01*
X178361495Y-68635121D01*
G37*
G36*
X179923164Y-69919889D02*
G01*
X180064997Y-69997419D01*
X180118411Y-70191518D01*
X180159871Y-70377965D01*
X180242354Y-70503110D01*
X180266233Y-70515123D01*
X180437685Y-70509830D01*
X180610389Y-70401527D01*
X180716339Y-70229475D01*
X180740260Y-70164055D01*
X180826851Y-70095940D01*
X180917997Y-70163191D01*
X180975716Y-70348394D01*
X180955455Y-70527250D01*
X180807410Y-70706698D01*
X180545658Y-70804892D01*
X180196965Y-70806100D01*
X180112005Y-70796802D01*
X179844540Y-70803402D01*
X179663492Y-70862542D01*
X179596415Y-70959832D01*
X179670860Y-71080881D01*
X179739710Y-71160985D01*
X179755278Y-71271614D01*
X179745905Y-71284904D01*
X179621266Y-71332380D01*
X179467077Y-71270148D01*
X179347508Y-71121787D01*
X179230442Y-70977432D01*
X179030008Y-70854470D01*
X178870442Y-70761302D01*
X178790437Y-70592351D01*
X178790604Y-70579803D01*
X178843098Y-70406251D01*
X178957605Y-70351759D01*
X179087782Y-70440065D01*
X179147615Y-70506665D01*
X179334507Y-70588907D01*
X179521075Y-70540381D01*
X179664452Y-70381791D01*
X179721770Y-70133844D01*
X179725612Y-70037237D01*
X179774523Y-69926589D01*
X179910765Y-69917944D01*
X179923164Y-69919889D01*
G37*
G36*
X183024782Y-68552631D02*
G01*
X182951065Y-68890797D01*
X182858252Y-69022177D01*
X182745448Y-69181854D01*
X182429363Y-69384842D01*
X182169474Y-69459591D01*
X181875954Y-69434301D01*
X181590933Y-69260140D01*
X181573676Y-69245499D01*
X181417651Y-69083212D01*
X181387026Y-69005552D01*
X182004915Y-69005552D01*
X182023068Y-69027529D01*
X182177104Y-69036357D01*
X182234549Y-69035538D01*
X182351621Y-69022177D01*
X182325270Y-68997637D01*
X182243671Y-68984469D01*
X182028937Y-68997637D01*
X182004915Y-69005552D01*
X181387026Y-69005552D01*
X181347018Y-68904097D01*
X181330437Y-68632666D01*
X181330514Y-68605554D01*
X181347606Y-68379848D01*
X181849170Y-68379848D01*
X181891281Y-68528421D01*
X181989265Y-68639379D01*
X182180633Y-68695303D01*
X182378494Y-68588514D01*
X182493549Y-68439023D01*
X182478576Y-68308497D01*
X182300976Y-68192502D01*
X182242908Y-68167722D01*
X182081446Y-68144048D01*
X181942578Y-68238240D01*
X181849170Y-68379848D01*
X181347606Y-68379848D01*
X181350293Y-68344370D01*
X181426653Y-68169412D01*
X181590933Y-68005192D01*
X181883343Y-67834268D01*
X182225086Y-67775392D01*
X182550048Y-67842081D01*
X182817949Y-68025367D01*
X182988511Y-68316286D01*
X183007347Y-68439023D01*
X183024782Y-68552631D01*
G37*
G36*
X176902479Y-63299248D02*
G01*
X177056393Y-63334535D01*
X177082145Y-63438279D01*
X177054475Y-63489780D01*
X176876061Y-63604268D01*
X176544881Y-63717370D01*
X175962922Y-63928405D01*
X175258359Y-64325395D01*
X174544458Y-64883403D01*
X174387659Y-65023963D01*
X173983591Y-65408803D01*
X173670227Y-65754413D01*
X173410904Y-66103890D01*
X173168959Y-66500333D01*
X172836611Y-67180335D01*
X172539277Y-68110350D01*
X172407988Y-69060572D01*
X172442989Y-70022375D01*
X172644529Y-70987133D01*
X173012854Y-71946220D01*
X173205549Y-72304223D01*
X173460844Y-72698257D01*
X173741747Y-73072978D01*
X174021964Y-73395847D01*
X174275200Y-73634322D01*
X174475160Y-73755864D01*
X174568635Y-73800732D01*
X174631464Y-73928663D01*
X174558626Y-74127871D01*
X174347826Y-74410156D01*
X174253268Y-74534547D01*
X174058798Y-74868867D01*
X173922127Y-75206782D01*
X173880508Y-75343914D01*
X173799111Y-75545547D01*
X173708602Y-75637894D01*
X173579459Y-75660000D01*
X173475541Y-75653805D01*
X173402442Y-75593967D01*
X173422704Y-75427166D01*
X173450544Y-75322143D01*
X173588335Y-74939792D01*
X173772189Y-74543926D01*
X173961913Y-74224211D01*
X174134949Y-73981205D01*
X173843947Y-73801356D01*
X173813959Y-73782482D01*
X173492233Y-73528909D01*
X173194304Y-73186907D01*
X172900801Y-72730680D01*
X172592356Y-72134431D01*
X172320705Y-71499708D01*
X172078272Y-70682373D01*
X171961614Y-69844380D01*
X171959530Y-68929000D01*
X172002743Y-68453266D01*
X172204920Y-67518438D01*
X172562149Y-66641968D01*
X173077930Y-65816269D01*
X173755762Y-65033752D01*
X174084328Y-64722931D01*
X174667742Y-64251049D01*
X175264935Y-63857362D01*
X175848456Y-63557189D01*
X176390854Y-63365850D01*
X176864679Y-63298666D01*
X176902479Y-63299248D01*
G37*
G36*
X187976770Y-70068984D02*
G01*
X188442437Y-70163676D01*
X188625222Y-70210338D01*
X188907464Y-70317553D01*
X189099555Y-70434836D01*
X189119792Y-70454180D01*
X189319448Y-70762354D01*
X189407120Y-71151703D01*
X189394550Y-71391018D01*
X189384558Y-71581253D01*
X189253513Y-72010031D01*
X189015734Y-72397063D01*
X188920519Y-72512576D01*
X188750146Y-72719268D01*
X188053007Y-72665682D01*
X187957951Y-72658033D01*
X187629365Y-72626225D01*
X187371466Y-72593237D01*
X187233402Y-72565100D01*
X187225699Y-72562495D01*
X187144313Y-72590565D01*
X187066626Y-72740933D01*
X186980358Y-73036471D01*
X186933754Y-73230989D01*
X186895281Y-73465896D01*
X186907091Y-73630475D01*
X186968254Y-73781918D01*
X186976746Y-73798553D01*
X187080433Y-74184415D01*
X187025497Y-74587916D01*
X186818083Y-74989687D01*
X186464333Y-75370362D01*
X186431730Y-75398039D01*
X186203998Y-75566095D01*
X186009408Y-75638350D01*
X185777537Y-75642734D01*
X185700863Y-75635484D01*
X185491321Y-75579493D01*
X185410126Y-75469500D01*
X185409337Y-75396799D01*
X185487231Y-75336886D01*
X185694523Y-75321333D01*
X185901438Y-75297988D01*
X186102041Y-75199163D01*
X186335731Y-74992627D01*
X186526249Y-74763231D01*
X186665704Y-74434973D01*
X186642912Y-74121836D01*
X186456619Y-73835818D01*
X186221281Y-73668998D01*
X185972064Y-73648826D01*
X185733104Y-73797333D01*
X185717716Y-73812961D01*
X185587240Y-74001659D01*
X185594860Y-74188858D01*
X185741207Y-74423404D01*
X185784009Y-74483912D01*
X185864189Y-74682311D01*
X185846513Y-74836165D01*
X185731913Y-74898000D01*
X185723181Y-74897212D01*
X185597735Y-74830803D01*
X185432922Y-74690181D01*
X185361079Y-74606297D01*
X185235872Y-74312745D01*
X185240546Y-73994907D01*
X185360853Y-73695334D01*
X185582542Y-73456575D01*
X185891365Y-73321181D01*
X186043115Y-73269766D01*
X186063939Y-73246846D01*
X186514890Y-73246846D01*
X186527805Y-73346228D01*
X186560001Y-73314547D01*
X186606840Y-73132817D01*
X186651448Y-72922955D01*
X186711857Y-72664210D01*
X186728432Y-72512576D01*
X186684523Y-72442666D01*
X186649236Y-72474402D01*
X186591091Y-72631500D01*
X186544118Y-72875883D01*
X186525889Y-73035388D01*
X186514890Y-73246846D01*
X186063939Y-73246846D01*
X186154977Y-73146645D01*
X186241717Y-72906142D01*
X186267954Y-72803123D01*
X186304539Y-72586348D01*
X186297307Y-72465108D01*
X186280903Y-72451527D01*
X186135251Y-72397853D01*
X185878401Y-72334158D01*
X185552750Y-72271469D01*
X185455382Y-72254532D01*
X185030190Y-72159829D01*
X184740682Y-72039640D01*
X184583847Y-71893232D01*
X185698184Y-71893232D01*
X185748505Y-71935221D01*
X185762180Y-71935885D01*
X185916059Y-71953105D01*
X186195016Y-71990108D01*
X186564402Y-72042167D01*
X186989562Y-72104554D01*
X187193501Y-72134896D01*
X187709353Y-72208401D01*
X188091099Y-72252999D01*
X188363614Y-72267141D01*
X188551773Y-72249278D01*
X188680451Y-72197861D01*
X188774524Y-72111342D01*
X188858865Y-71988173D01*
X188965894Y-71745096D01*
X189029504Y-71391018D01*
X189011812Y-71045807D01*
X188909941Y-70777649D01*
X188740908Y-70640091D01*
X188507775Y-70558941D01*
X188350605Y-70533275D01*
X188032239Y-70475396D01*
X187635493Y-70399464D01*
X187210263Y-70315241D01*
X186806446Y-70232492D01*
X186473937Y-70160979D01*
X186156437Y-70090005D01*
X186156437Y-70491701D01*
X186154083Y-70588766D01*
X186153454Y-70614691D01*
X186048917Y-71196695D01*
X185799055Y-71701833D01*
X185762812Y-71755719D01*
X185698184Y-71893232D01*
X184583847Y-71893232D01*
X184558560Y-71869626D01*
X184455528Y-71625449D01*
X184403289Y-71282769D01*
X184393930Y-71158618D01*
X184394289Y-71143849D01*
X184805108Y-71143849D01*
X184829681Y-71410595D01*
X184903370Y-71579066D01*
X185044201Y-71665111D01*
X185237395Y-71647479D01*
X185423437Y-71506497D01*
X185581771Y-71266697D01*
X185691845Y-70952609D01*
X185733104Y-70588766D01*
X185730536Y-70521659D01*
X185670700Y-70258522D01*
X185552323Y-70063558D01*
X185403148Y-69987333D01*
X185304971Y-70036786D01*
X185152813Y-70190193D01*
X185000951Y-70397403D01*
X184892077Y-70606678D01*
X184830394Y-70842831D01*
X184805108Y-71143849D01*
X184394289Y-71143849D01*
X184403724Y-70755210D01*
X184491688Y-70420338D01*
X184505123Y-70386477D01*
X184576904Y-70163016D01*
X184573998Y-69987937D01*
X184497182Y-69768968D01*
X184421719Y-69519335D01*
X184449935Y-69373968D01*
X184549810Y-69329334D01*
X184686010Y-69406416D01*
X184806834Y-69619652D01*
X184852107Y-69709477D01*
X184948010Y-69776322D01*
X185014134Y-69708245D01*
X185006888Y-69525714D01*
X184991509Y-69423363D01*
X185029997Y-69290739D01*
X185127460Y-69287559D01*
X185238334Y-69432225D01*
X185244277Y-69445064D01*
X185333139Y-69575525D01*
X185474204Y-69635388D01*
X185725527Y-69650686D01*
X185800991Y-69652268D01*
X186136251Y-69678618D01*
X186432195Y-69726570D01*
X186474828Y-69736329D01*
X186663429Y-69765187D01*
X186742235Y-69728336D01*
X187087770Y-69728336D01*
X187091000Y-69752090D01*
X187172437Y-69860333D01*
X187216058Y-69868298D01*
X187257104Y-69780663D01*
X187246742Y-69717582D01*
X187172437Y-69648666D01*
X187152349Y-69650947D01*
X187087770Y-69728336D01*
X186742235Y-69728336D01*
X186754345Y-69722673D01*
X186803642Y-69587848D01*
X186817274Y-69537713D01*
X186874784Y-69433247D01*
X186993545Y-69400095D01*
X187226384Y-69416897D01*
X187595770Y-69458532D01*
X187595771Y-68892212D01*
X187570436Y-68472566D01*
X187446410Y-67784552D01*
X187233156Y-67073863D01*
X186946427Y-66400939D01*
X186836718Y-66197613D01*
X186600273Y-65840164D01*
X186288480Y-65462114D01*
X185870509Y-65024007D01*
X185867242Y-65020741D01*
X185510180Y-64673003D01*
X185215043Y-64414813D01*
X184931411Y-64209672D01*
X184608867Y-64021085D01*
X184196994Y-63812552D01*
X183891450Y-63668238D01*
X183424060Y-63474916D01*
X182998872Y-63343669D01*
X182553373Y-63253225D01*
X182419728Y-63232856D01*
X182070915Y-63191288D01*
X181785203Y-63173161D01*
X181614255Y-63182373D01*
X181587436Y-63188558D01*
X181434584Y-63174566D01*
X181339316Y-63025686D01*
X181297903Y-62864117D01*
X181243271Y-62529670D01*
X181183749Y-62052795D01*
X181120949Y-61447932D01*
X181056482Y-60729520D01*
X180991958Y-59912000D01*
X180988628Y-59867168D01*
X180923248Y-58993282D01*
X180868103Y-58272280D01*
X180821769Y-57688837D01*
X180782825Y-57227625D01*
X180749847Y-56873318D01*
X180721413Y-56610589D01*
X180696102Y-56424112D01*
X180672489Y-56298561D01*
X180649153Y-56218608D01*
X180551917Y-56076743D01*
X180360645Y-56015596D01*
X180119756Y-56088353D01*
X179856232Y-56292500D01*
X179785729Y-56370166D01*
X179583384Y-56695526D01*
X179438932Y-57124629D01*
X179349670Y-57672205D01*
X179312894Y-58352981D01*
X179325901Y-59181685D01*
X179327150Y-59211849D01*
X179373503Y-59997374D01*
X179442413Y-60727854D01*
X179530398Y-61384243D01*
X179633975Y-61947495D01*
X179749663Y-62398562D01*
X179873981Y-62718397D01*
X180003445Y-62887955D01*
X180037578Y-62934541D01*
X180033098Y-63078455D01*
X179994640Y-63134562D01*
X179843882Y-63195715D01*
X179560091Y-63214000D01*
X179450213Y-63210779D01*
X179218871Y-63176967D01*
X179085297Y-63118348D01*
X179072940Y-63049940D01*
X179205252Y-62986759D01*
X179219556Y-62983030D01*
X179326470Y-62947673D01*
X179369083Y-62884957D01*
X179355707Y-62749103D01*
X179294651Y-62494333D01*
X179276830Y-62420912D01*
X179159770Y-61843847D01*
X179045000Y-61116487D01*
X178934896Y-60255361D01*
X178831837Y-59277000D01*
X178790191Y-58858616D01*
X178700494Y-58078248D01*
X178607620Y-57448665D01*
X178508139Y-56957215D01*
X178398620Y-56591251D01*
X178275633Y-56338123D01*
X178135746Y-56185182D01*
X177975529Y-56119779D01*
X177969321Y-56118950D01*
X177777924Y-56174821D01*
X177573154Y-56362396D01*
X177381522Y-56650158D01*
X177229541Y-57006589D01*
X177190420Y-57144781D01*
X177109090Y-57687008D01*
X177095837Y-58360654D01*
X177149064Y-59148382D01*
X177267174Y-60032853D01*
X177448570Y-60996730D01*
X177691654Y-62022674D01*
X177699142Y-62051548D01*
X177797152Y-62446522D01*
X177872692Y-62782272D01*
X177918431Y-63024075D01*
X177927034Y-63137210D01*
X177884948Y-63178341D01*
X177777812Y-63131618D01*
X177641265Y-62987926D01*
X177503554Y-62779022D01*
X177392924Y-62536666D01*
X177388540Y-62524200D01*
X177210427Y-61954139D01*
X177034338Y-61281640D01*
X176874850Y-60571472D01*
X176746536Y-59888406D01*
X176663972Y-59297212D01*
X176655591Y-59214660D01*
X176603086Y-58341884D01*
X176626447Y-57583773D01*
X176723373Y-56947473D01*
X176891566Y-56440132D01*
X177128726Y-56068897D01*
X177432555Y-55840915D01*
X177800754Y-55763333D01*
X177850709Y-55764132D01*
X178222634Y-55837995D01*
X178504606Y-56039105D01*
X178706263Y-56377695D01*
X178837243Y-56864000D01*
X178904073Y-57245000D01*
X179039600Y-56821666D01*
X179042660Y-56812120D01*
X179172804Y-56445678D01*
X179303156Y-56192544D01*
X179467619Y-56001340D01*
X179700094Y-55820688D01*
X179814606Y-55747518D01*
X180177442Y-55608681D01*
X180510120Y-55635110D01*
X180817961Y-55826833D01*
X180832482Y-55840361D01*
X180959931Y-55981540D01*
X181043757Y-56145549D01*
X181101853Y-56381124D01*
X181152110Y-56737000D01*
X181166497Y-56869103D01*
X181199909Y-57257430D01*
X181233516Y-57743332D01*
X181264092Y-58277677D01*
X181288407Y-58811333D01*
X181294636Y-58961195D01*
X181326343Y-59572811D01*
X181368055Y-60220724D01*
X181415071Y-60836407D01*
X181462687Y-61351333D01*
X181473201Y-61451997D01*
X181516164Y-61873747D01*
X181551114Y-62233343D01*
X181574689Y-62495381D01*
X181583531Y-62624459D01*
X181584931Y-62638763D01*
X181636698Y-62700753D01*
X181781638Y-62752045D01*
X182045059Y-62799171D01*
X182452270Y-62848665D01*
X183132777Y-62962987D01*
X184080537Y-63263190D01*
X184973440Y-63714764D01*
X185793733Y-64308177D01*
X186523664Y-65033903D01*
X186608347Y-65133456D01*
X187031113Y-65683486D01*
X187352524Y-66221714D01*
X187604188Y-66808476D01*
X187817713Y-67504108D01*
X187821048Y-67516657D01*
X187928102Y-67958585D01*
X187988677Y-68332821D01*
X188011506Y-68717966D01*
X188005324Y-69192624D01*
X187986164Y-69780663D01*
X187976770Y-70068984D01*
G37*
%TD*%
M02*
