%TF.GenerationSoftware,KiCad,Pcbnew,8.0.6-8.0.6-0~ubuntu22.04.1*%
%TF.CreationDate,2024-12-10T00:27:36+09:00*%
%TF.ProjectId,FastCANDriver,46617374-4341-44e4-9472-697665722e6b,rev?*%
%TF.SameCoordinates,Original*%
%TF.FileFunction,Copper,L1,Top*%
%TF.FilePolarity,Positive*%
%FSLAX46Y46*%
G04 Gerber Fmt 4.6, Leading zero omitted, Abs format (unit mm)*
G04 Created by KiCad (PCBNEW 8.0.6-8.0.6-0~ubuntu22.04.1) date 2024-12-10 00:27:36*
%MOMM*%
%LPD*%
G01*
G04 APERTURE LIST*
G04 Aperture macros list*
%AMRoundRect*
0 Rectangle with rounded corners*
0 $1 Rounding radius*
0 $2 $3 $4 $5 $6 $7 $8 $9 X,Y pos of 4 corners*
0 Add a 4 corners polygon primitive as box body*
4,1,4,$2,$3,$4,$5,$6,$7,$8,$9,$2,$3,0*
0 Add four circle primitives for the rounded corners*
1,1,$1+$1,$2,$3*
1,1,$1+$1,$4,$5*
1,1,$1+$1,$6,$7*
1,1,$1+$1,$8,$9*
0 Add four rect primitives between the rounded corners*
20,1,$1+$1,$2,$3,$4,$5,0*
20,1,$1+$1,$4,$5,$6,$7,0*
20,1,$1+$1,$6,$7,$8,$9,0*
20,1,$1+$1,$8,$9,$2,$3,0*%
G04 Aperture macros list end*
%TA.AperFunction,ComponentPad*%
%ADD10C,1.600000*%
%TD*%
%TA.AperFunction,ComponentPad*%
%ADD11RoundRect,0.760000X-1.140000X-1.140000X1.140000X-1.140000X1.140000X1.140000X-1.140000X1.140000X0*%
%TD*%
%TA.AperFunction,ComponentPad*%
%ADD12C,4.000000*%
%TD*%
%TA.AperFunction,ComponentPad*%
%ADD13RoundRect,0.760000X1.140000X1.140000X-1.140000X1.140000X-1.140000X-1.140000X1.140000X-1.140000X0*%
%TD*%
%TA.AperFunction,ComponentPad*%
%ADD14R,1.600000X1.600000*%
%TD*%
%TA.AperFunction,ComponentPad*%
%ADD15O,1.600000X1.600000*%
%TD*%
%TA.AperFunction,ComponentPad*%
%ADD16R,1.605000X1.605000*%
%TD*%
%TA.AperFunction,ComponentPad*%
%ADD17C,1.605000*%
%TD*%
%TA.AperFunction,ComponentPad*%
%ADD18R,1.530000X1.530000*%
%TD*%
%TA.AperFunction,ComponentPad*%
%ADD19C,1.530000*%
%TD*%
%TA.AperFunction,Conductor*%
%ADD20C,1.000000*%
%TD*%
G04 APERTURE END LIST*
D10*
%TO.P,0.1\u03BCF,1*%
%TO.N,5V*%
X150000000Y-55000000D03*
%TO.P,0.1\u03BCF,2*%
%TO.N,GND*%
X150000000Y-52500000D03*
%TD*%
D11*
%TO.P,J4,1,Pin_1*%
%TO.N,CAN_L*%
X105000000Y-120000000D03*
D12*
%TO.P,J4,2,Pin_2*%
%TO.N,CAN_H*%
X110000000Y-120000000D03*
%TD*%
D10*
%TO.P,0.1\u03BCF,1*%
%TO.N,3.3V*%
X140000000Y-55000000D03*
%TO.P,0.1\u03BCF,2*%
%TO.N,GND*%
X140000000Y-52500000D03*
%TD*%
D11*
%TO.P,J2,1,Pin_1*%
%TO.N,CAN_L*%
X105000000Y-100000000D03*
D12*
%TO.P,J2,2,Pin_2*%
%TO.N,CAN_H*%
X110000000Y-100000000D03*
%TD*%
D13*
%TO.P,J8,1,Pin_1*%
%TO.N,CAN_L*%
X195000000Y-90000000D03*
D12*
%TO.P,J8,2,Pin_2*%
%TO.N,CAN_H*%
X190000000Y-90000000D03*
%TD*%
D14*
%TO.P,MCP2562,1,TXD*%
%TO.N,TX*%
X150000000Y-100000000D03*
D15*
%TO.P,MCP2562,2,VSS*%
%TO.N,GND*%
X150000000Y-97460000D03*
%TO.P,MCP2562,3,VDD*%
%TO.N,5V*%
X150000000Y-94920000D03*
%TO.P,MCP2562,4,RXD*%
%TO.N,RX*%
X150000000Y-92380000D03*
%TO.P,MCP2562,5,Vio*%
%TO.N,3.3V*%
X142380000Y-92380000D03*
%TO.P,MCP2562,6,CANL*%
%TO.N,CAN_L*%
X142380000Y-94920000D03*
%TO.P,MCP2562,7,CANH*%
%TO.N,CAN_H*%
X142380000Y-97460000D03*
%TO.P,MCP2562,8,STBY*%
%TO.N,GND*%
X142380000Y-100000000D03*
%TD*%
D10*
%TO.P,120\u03A9,1*%
%TO.N,CAN_H*%
X111700000Y-72080000D03*
D15*
%TO.P,120\u03A9,2*%
%TO.N,CAN_L*%
X111700000Y-61920000D03*
%TD*%
D11*
%TO.P,J1,1,Pin_1*%
%TO.N,CAN_L*%
X105000000Y-90000000D03*
D12*
%TO.P,J1,2,Pin_2*%
%TO.N,CAN_H*%
X110000000Y-90000000D03*
%TD*%
D13*
%TO.P,J7,1,Pin_1*%
%TO.N,CAN_L*%
X195000000Y-100000000D03*
D12*
%TO.P,J7,2,Pin_2*%
%TO.N,CAN_H*%
X190000000Y-100000000D03*
%TD*%
D16*
%TO.P,U3,CN5_1,D8*%
%TO.N,unconnected-(U3F-D8-PadCN5_1)*%
X174130000Y-114370000D03*
D17*
%TO.P,U3,CN5_2,D9*%
%TO.N,unconnected-(U3F-D9-PadCN5_2)*%
X174130000Y-111830000D03*
%TO.P,U3,CN5_3,D10*%
%TO.N,unconnected-(U3F-D10-PadCN5_3)*%
X174130000Y-109290000D03*
%TO.P,U3,CN5_4,D11*%
%TO.N,unconnected-(U3F-D11-PadCN5_4)*%
X174130000Y-106750000D03*
%TO.P,U3,CN5_5,D12*%
%TO.N,unconnected-(U3F-D12-PadCN5_5)*%
X174130000Y-104210000D03*
%TO.P,U3,CN5_6,D13*%
%TO.N,unconnected-(U3F-D13-PadCN5_6)*%
X174130000Y-101670000D03*
%TO.P,U3,CN5_7,CN5_GND*%
%TO.N,unconnected-(U3F-CN5_GND-PadCN5_7)*%
X174130000Y-99130000D03*
%TO.P,U3,CN5_8,AREF*%
%TO.N,unconnected-(U3F-AREF-PadCN5_8)*%
X174130000Y-96590000D03*
%TO.P,U3,CN5_9,D14*%
%TO.N,unconnected-(U3F-D14-PadCN5_9)*%
X174130000Y-94050000D03*
%TO.P,U3,CN5_10,D15*%
%TO.N,unconnected-(U3F-D15-PadCN5_10)*%
X174130000Y-91510000D03*
D16*
%TO.P,U3,CN6_1*%
%TO.N,N/C*%
X125870000Y-100650000D03*
D17*
%TO.P,U3,CN6_2,CN6_IOREF*%
%TO.N,unconnected-(U3C-CN6_IOREF-PadCN6_2)*%
X125870000Y-103190000D03*
%TO.P,U3,CN6_3,CN6_RESET*%
%TO.N,unconnected-(U3C-CN6_RESET-PadCN6_3)*%
X125870000Y-105730000D03*
%TO.P,U3,CN6_4,CN6_+3V3*%
%TO.N,unconnected-(U3C-CN6_+3V3-PadCN6_4)*%
X125870000Y-108270000D03*
%TO.P,U3,CN6_5,CN6_+5V*%
%TO.N,unconnected-(U3C-CN6_+5V-PadCN6_5)*%
X125870000Y-110810000D03*
%TO.P,U3,CN6_6,CN6_GND*%
%TO.N,unconnected-(U3C-CN6_GND-PadCN6_6)*%
X125870000Y-113350000D03*
%TO.P,U3,CN6_7,CN6_GND__1*%
%TO.N,unconnected-(U3C-CN6_GND__1-PadCN6_7)*%
X125870000Y-115890000D03*
%TO.P,U3,CN6_8,CN6_VIN*%
%TO.N,unconnected-(U3C-CN6_VIN-PadCN6_8)*%
X125870000Y-118430000D03*
D18*
%TO.P,U3,CN7_1,PC10*%
%TO.N,unconnected-(U3A-PC10-PadCN7_1)*%
X118250000Y-90490000D03*
D19*
%TO.P,U3,CN7_2,PC11*%
%TO.N,unconnected-(U3A-PC11-PadCN7_2)*%
X120790000Y-90490000D03*
%TO.P,U3,CN7_3,PC12*%
%TO.N,unconnected-(U3A-PC12-PadCN7_3)*%
X118250000Y-93030000D03*
%TO.P,U3,CN7_4,PD2*%
%TO.N,unconnected-(U3A-PD2-PadCN7_4)*%
X120790000Y-93030000D03*
%TO.P,U3,CN7_5,VDD*%
%TO.N,unconnected-(U3A-VDD-PadCN7_5)*%
X118250000Y-95570000D03*
%TO.P,U3,CN7_6,E5V*%
%TO.N,unconnected-(U3A-E5V-PadCN7_6)*%
X120790000Y-95570000D03*
%TO.P,U3,CN7_7,BOOT0*%
%TO.N,unconnected-(U3A-BOOT0-PadCN7_7)*%
X118250000Y-98110000D03*
%TO.P,U3,CN7_8,CN7_GND*%
%TO.N,unconnected-(U3A-CN7_GND-PadCN7_8)*%
X120790000Y-98110000D03*
%TO.P,U3,CN7_9*%
%TO.N,N/C*%
X118250000Y-100650000D03*
%TO.P,U3,CN7_10*%
X120790000Y-100650000D03*
%TO.P,U3,CN7_11*%
X118250000Y-103190000D03*
%TO.P,U3,CN7_12,CN7_IOREF*%
%TO.N,unconnected-(U3A-CN7_IOREF-PadCN7_12)*%
X120790000Y-103190000D03*
%TO.P,U3,CN7_13,PA13*%
%TO.N,unconnected-(U3A-PA13-PadCN7_13)*%
X118250000Y-105730000D03*
%TO.P,U3,CN7_14,CN7_RESET*%
%TO.N,unconnected-(U3A-CN7_RESET-PadCN7_14)*%
X120790000Y-105730000D03*
%TO.P,U3,CN7_15,PA14*%
%TO.N,unconnected-(U3A-PA14-PadCN7_15)*%
X118250000Y-108270000D03*
%TO.P,U3,CN7_16,CN7_+3V3*%
%TO.N,3.3V*%
X120790000Y-108270000D03*
%TO.P,U3,CN7_17,PA15*%
%TO.N,unconnected-(U3A-PA15-PadCN7_17)*%
X118250000Y-110810000D03*
%TO.P,U3,CN7_18,CN7_+5V*%
%TO.N,5V*%
X120790000Y-110810000D03*
%TO.P,U3,CN7_19,CN7_GND__1*%
%TO.N,GND*%
X118250000Y-113350000D03*
%TO.P,U3,CN7_20,CN7_GND__2*%
X120790000Y-113350000D03*
%TO.P,U3,CN7_21,PB7*%
%TO.N,unconnected-(U3A-PB7-PadCN7_21)*%
X118250000Y-115890000D03*
%TO.P,U3,CN7_22,CN7_GND__3*%
%TO.N,GND*%
X120790000Y-115890000D03*
%TO.P,U3,CN7_23,PC13*%
%TO.N,unconnected-(U3A-PC13-PadCN7_23)*%
X118250000Y-118430000D03*
%TO.P,U3,CN7_24,CN7_VIN*%
%TO.N,unconnected-(U3A-CN7_VIN-PadCN7_24)*%
X120790000Y-118430000D03*
%TO.P,U3,CN7_25,PC14*%
%TO.N,unconnected-(U3A-PC14-PadCN7_25)*%
X118250000Y-120970000D03*
%TO.P,U3,CN7_26*%
%TO.N,N/C*%
X120790000Y-120970000D03*
%TO.P,U3,CN7_27,PC15*%
%TO.N,unconnected-(U3A-PC15-PadCN7_27)*%
X118250000Y-123510000D03*
%TO.P,U3,CN7_28,PA0*%
%TO.N,unconnected-(U3A-PA0-PadCN7_28)*%
X120790000Y-123510000D03*
%TO.P,U3,CN7_29,PH0*%
%TO.N,unconnected-(U3A-PH0-PadCN7_29)*%
X118250000Y-126050000D03*
%TO.P,U3,CN7_30,PA1*%
%TO.N,unconnected-(U3A-PA1-PadCN7_30)*%
X120790000Y-126050000D03*
%TO.P,U3,CN7_31,PH1*%
%TO.N,unconnected-(U3A-PH1-PadCN7_31)*%
X118250000Y-128590000D03*
%TO.P,U3,CN7_32,PA4*%
%TO.N,unconnected-(U3A-PA4-PadCN7_32)*%
X120790000Y-128590000D03*
%TO.P,U3,CN7_33,VBAT*%
%TO.N,unconnected-(U3A-VBAT-PadCN7_33)*%
X118250000Y-131130000D03*
%TO.P,U3,CN7_34,PB0*%
%TO.N,unconnected-(U3A-PB0-PadCN7_34)*%
X120790000Y-131130000D03*
%TO.P,U3,CN7_35,PC2*%
%TO.N,unconnected-(U3A-PC2-PadCN7_35)*%
X118250000Y-133670000D03*
%TO.P,U3,CN7_36,PC1/PB9*%
%TO.N,unconnected-(U3A-PC1{slash}PB9-PadCN7_36)*%
X120790000Y-133670000D03*
%TO.P,U3,CN7_37,PC3*%
%TO.N,unconnected-(U3A-PC3-PadCN7_37)*%
X118250000Y-136210000D03*
%TO.P,U3,CN7_38,PC0/PB8*%
%TO.N,unconnected-(U3A-PC0{slash}PB8-PadCN7_38)*%
X120790000Y-136210000D03*
D16*
%TO.P,U3,CN8_1,A0*%
%TO.N,unconnected-(U3E-A0-PadCN8_1)*%
X125870000Y-123510000D03*
D17*
%TO.P,U3,CN8_2,A1*%
%TO.N,unconnected-(U3E-A1-PadCN8_2)*%
X125870000Y-126050000D03*
%TO.P,U3,CN8_3,A2*%
%TO.N,unconnected-(U3E-A2-PadCN8_3)*%
X125870000Y-128590000D03*
%TO.P,U3,CN8_4,A3*%
%TO.N,unconnected-(U3E-A3-PadCN8_4)*%
X125870000Y-131130000D03*
%TO.P,U3,CN8_5,A4*%
%TO.N,unconnected-(U3E-A4-PadCN8_5)*%
X125870000Y-133670000D03*
%TO.P,U3,CN8_6,A5*%
%TO.N,unconnected-(U3E-A5-PadCN8_6)*%
X125870000Y-136210000D03*
D16*
%TO.P,U3,CN9_1,D0*%
%TO.N,unconnected-(U3D-D0-PadCN9_1)*%
X174130000Y-136210000D03*
D17*
%TO.P,U3,CN9_2,D1*%
%TO.N,unconnected-(U3D-D1-PadCN9_2)*%
X174130000Y-133670000D03*
%TO.P,U3,CN9_3,D2*%
%TO.N,unconnected-(U3D-D2-PadCN9_3)*%
X174130000Y-131130000D03*
%TO.P,U3,CN9_4,D3*%
%TO.N,unconnected-(U3D-D3-PadCN9_4)*%
X174130000Y-128590000D03*
%TO.P,U3,CN9_5,D4*%
%TO.N,unconnected-(U3D-D4-PadCN9_5)*%
X174130000Y-126050000D03*
%TO.P,U3,CN9_6,D5*%
%TO.N,unconnected-(U3D-D5-PadCN9_6)*%
X174130000Y-123510000D03*
%TO.P,U3,CN9_7,D6*%
%TO.N,unconnected-(U3D-D6-PadCN9_7)*%
X174130000Y-120970000D03*
%TO.P,U3,CN9_8,D7*%
%TO.N,unconnected-(U3D-D7-PadCN9_8)*%
X174130000Y-118430000D03*
D18*
%TO.P,U3,CN10_1,PC9*%
%TO.N,unconnected-(U3B-PC9-PadCN10_1)*%
X179210000Y-90490000D03*
D19*
%TO.P,U3,CN10_2,PC8*%
%TO.N,unconnected-(U3B-PC8-PadCN10_2)*%
X181750000Y-90490000D03*
%TO.P,U3,CN10_3,PB8*%
%TO.N,RX*%
X179210000Y-93030000D03*
%TO.P,U3,CN10_4,PC6*%
%TO.N,unconnected-(U3B-PC6-PadCN10_4)*%
X181750000Y-93030000D03*
%TO.P,U3,CN10_5,PB9*%
%TO.N,TX*%
X179210000Y-95570000D03*
%TO.P,U3,CN10_6,PC5*%
%TO.N,unconnected-(U3B-PC5-PadCN10_6)*%
X181750000Y-95570000D03*
%TO.P,U3,CN10_7,AVDD*%
%TO.N,unconnected-(U3B-AVDD-PadCN10_7)*%
X179210000Y-98110000D03*
%TO.P,U3,CN10_8,U5V*%
%TO.N,unconnected-(U3B-U5V-PadCN10_8)*%
X181750000Y-98110000D03*
%TO.P,U3,CN10_9,CN10_GND*%
%TO.N,GND*%
X179210000Y-100650000D03*
%TO.P,U3,CN10_10*%
%TO.N,N/C*%
X181750000Y-100650000D03*
%TO.P,U3,CN10_11,PA5*%
%TO.N,unconnected-(U3B-PA5-PadCN10_11)*%
X179210000Y-103190000D03*
%TO.P,U3,CN10_12,PA12*%
%TO.N,unconnected-(U3B-PA12-PadCN10_12)*%
X181750000Y-103190000D03*
%TO.P,U3,CN10_13,PA6*%
%TO.N,unconnected-(U3B-PA6-PadCN10_13)*%
X179210000Y-105730000D03*
%TO.P,U3,CN10_14,PA11*%
%TO.N,unconnected-(U3B-PA11-PadCN10_14)*%
X181750000Y-105730000D03*
%TO.P,U3,CN10_15,PA7*%
%TO.N,unconnected-(U3B-PA7-PadCN10_15)*%
X179210000Y-108270000D03*
%TO.P,U3,CN10_16,PB12*%
%TO.N,unconnected-(U3B-PB12-PadCN10_16)*%
X181750000Y-108270000D03*
%TO.P,U3,CN10_17,PB6*%
%TO.N,unconnected-(U3B-PB6-PadCN10_17)*%
X179210000Y-110810000D03*
%TO.P,U3,CN10_18*%
%TO.N,N/C*%
X181750000Y-110810000D03*
%TO.P,U3,CN10_19,PC7*%
%TO.N,unconnected-(U3B-PC7-PadCN10_19)*%
X179210000Y-113350000D03*
%TO.P,U3,CN10_20,CN10_GND__1*%
%TO.N,unconnected-(U3B-CN10_GND__1-PadCN10_20)*%
X181750000Y-113350000D03*
%TO.P,U3,CN10_21,PA9*%
%TO.N,unconnected-(U3B-PA9-PadCN10_21)*%
X179210000Y-115890000D03*
%TO.P,U3,CN10_22,PB2*%
%TO.N,unconnected-(U3B-PB2-PadCN10_22)*%
X181750000Y-115890000D03*
%TO.P,U3,CN10_23,PA8*%
%TO.N,unconnected-(U3B-PA8-PadCN10_23)*%
X179210000Y-118430000D03*
%TO.P,U3,CN10_24,PB1*%
%TO.N,unconnected-(U3B-PB1-PadCN10_24)*%
X181750000Y-118430000D03*
%TO.P,U3,CN10_25,PB10*%
%TO.N,unconnected-(U3B-PB10-PadCN10_25)*%
X179210000Y-120970000D03*
%TO.P,U3,CN10_26,PB15*%
%TO.N,unconnected-(U3B-PB15-PadCN10_26)*%
X181750000Y-120970000D03*
%TO.P,U3,CN10_27,PB4*%
%TO.N,unconnected-(U3B-PB4-PadCN10_27)*%
X179210000Y-123510000D03*
%TO.P,U3,CN10_28,PB14*%
%TO.N,unconnected-(U3B-PB14-PadCN10_28)*%
X181750000Y-123510000D03*
%TO.P,U3,CN10_29,PB5*%
%TO.N,unconnected-(U3B-PB5-PadCN10_29)*%
X179210000Y-126050000D03*
%TO.P,U3,CN10_30,PB13*%
%TO.N,unconnected-(U3B-PB13-PadCN10_30)*%
X181750000Y-126050000D03*
%TO.P,U3,CN10_31,PB3*%
%TO.N,unconnected-(U3B-PB3-PadCN10_31)*%
X179210000Y-128590000D03*
%TO.P,U3,CN10_32,AGND*%
%TO.N,unconnected-(U3B-AGND-PadCN10_32)*%
X181750000Y-128590000D03*
%TO.P,U3,CN10_33,PA10*%
%TO.N,unconnected-(U3B-PA10-PadCN10_33)*%
X179210000Y-131130000D03*
%TO.P,U3,CN10_34,PC4*%
%TO.N,unconnected-(U3B-PC4-PadCN10_34)*%
X181750000Y-131130000D03*
%TO.P,U3,CN10_35,PA2*%
%TO.N,unconnected-(U3B-PA2-PadCN10_35)*%
X179210000Y-133670000D03*
%TO.P,U3,CN10_36*%
%TO.N,N/C*%
X181750000Y-133670000D03*
%TO.P,U3,CN10_37,PA3*%
%TO.N,unconnected-(U3B-PA3-PadCN10_37)*%
X179210000Y-136210000D03*
%TO.P,U3,CN10_38*%
%TO.N,N/C*%
X181750000Y-136210000D03*
%TD*%
D13*
%TO.P,J5,1,Pin_1*%
%TO.N,CAN_L*%
X195000000Y-120000000D03*
D12*
%TO.P,J5,2,Pin_2*%
%TO.N,CAN_H*%
X190000000Y-120000000D03*
%TD*%
D13*
%TO.P,J6,1,Pin_1*%
%TO.N,CAN_L*%
X195000000Y-110000000D03*
D12*
%TO.P,J6,2,Pin_2*%
%TO.N,CAN_H*%
X190000000Y-110000000D03*
%TD*%
D11*
%TO.P,J3,1,Pin_1*%
%TO.N,CAN_L*%
X105000000Y-110000000D03*
D12*
%TO.P,J3,2,Pin_2*%
%TO.N,CAN_H*%
X110000000Y-110000000D03*
%TD*%
D20*
%TO.N,3.3V*%
X124367500Y-99147500D02*
X131135000Y-92380000D01*
X131135000Y-92380000D02*
X142380000Y-92380000D01*
X142380000Y-92380000D02*
X142380000Y-57380000D01*
X142380000Y-57380000D02*
X140000000Y-55000000D01*
X120790000Y-108270000D02*
X124367500Y-104692500D01*
X124367500Y-104692500D02*
X124367500Y-99147500D01*
%TO.N,5V*%
X122255000Y-116939856D02*
X125247644Y-119932500D01*
X148500000Y-98000000D02*
X148500000Y-96420000D01*
X120790000Y-110810000D02*
X122255000Y-112275000D01*
X125247644Y-119932500D02*
X126567500Y-119932500D01*
X150000000Y-94920000D02*
X148500000Y-93420000D01*
X148500000Y-56500000D02*
X150000000Y-55000000D01*
X122255000Y-112275000D02*
X122255000Y-116939856D01*
X148500000Y-96420000D02*
X150000000Y-94920000D01*
X126567500Y-119932500D02*
X148500000Y-98000000D01*
X148500000Y-93420000D02*
X148500000Y-56500000D01*
%TO.N,RX*%
X177700000Y-88338019D02*
X177700000Y-91520000D01*
X177700000Y-91520000D02*
X179210000Y-93030000D01*
X150000000Y-92380000D02*
X156680000Y-85700000D01*
X156680000Y-85700000D02*
X175061981Y-85700000D01*
X175061981Y-85700000D02*
X177700000Y-88338019D01*
%TO.N,TX*%
X165872500Y-115872500D02*
X175632500Y-115872500D01*
X175632500Y-99147500D02*
X179210000Y-95570000D01*
X150000000Y-100000000D02*
X165872500Y-115872500D01*
X175632500Y-115872500D02*
X175632500Y-99147500D01*
%TD*%
M02*
