%TF.GenerationSoftware,KiCad,Pcbnew,8.0.6-8.0.6-0~ubuntu22.04.1*%
%TF.CreationDate,2024-12-10T00:27:51+09:00*%
%TF.ProjectId,FastCANDriver,46617374-4341-44e4-9472-697665722e6b,rev?*%
%TF.SameCoordinates,Original*%
%TF.FileFunction,Soldermask,Top*%
%TF.FilePolarity,Negative*%
%FSLAX46Y46*%
G04 Gerber Fmt 4.6, Leading zero omitted, Abs format (unit mm)*
G04 Created by KiCad (PCBNEW 8.0.6-8.0.6-0~ubuntu22.04.1) date 2024-12-10 00:27:51*
%MOMM*%
%LPD*%
G01*
G04 APERTURE LIST*
G04 Aperture macros list*
%AMRoundRect*
0 Rectangle with rounded corners*
0 $1 Rounding radius*
0 $2 $3 $4 $5 $6 $7 $8 $9 X,Y pos of 4 corners*
0 Add a 4 corners polygon primitive as box body*
4,1,4,$2,$3,$4,$5,$6,$7,$8,$9,$2,$3,0*
0 Add four circle primitives for the rounded corners*
1,1,$1+$1,$2,$3*
1,1,$1+$1,$4,$5*
1,1,$1+$1,$6,$7*
1,1,$1+$1,$8,$9*
0 Add four rect primitives between the rounded corners*
20,1,$1+$1,$2,$3,$4,$5,0*
20,1,$1+$1,$4,$5,$6,$7,0*
20,1,$1+$1,$6,$7,$8,$9,0*
20,1,$1+$1,$8,$9,$2,$3,0*%
G04 Aperture macros list end*
%ADD10C,1.600000*%
%ADD11RoundRect,0.760000X-1.140000X-1.140000X1.140000X-1.140000X1.140000X1.140000X-1.140000X1.140000X0*%
%ADD12C,4.000000*%
%ADD13RoundRect,0.760000X1.140000X1.140000X-1.140000X1.140000X-1.140000X-1.140000X1.140000X-1.140000X0*%
%ADD14R,1.600000X1.600000*%
%ADD15O,1.600000X1.600000*%
%ADD16C,3.000000*%
%ADD17RoundRect,0.102000X-0.802500X-0.802500X0.802500X-0.802500X0.802500X0.802500X-0.802500X0.802500X0*%
%ADD18C,1.809000*%
%ADD19RoundRect,0.102000X-0.765000X-0.765000X0.765000X-0.765000X0.765000X0.765000X-0.765000X0.765000X0*%
%ADD20C,1.734000*%
G04 APERTURE END LIST*
D10*
%TO.C,0.1\u03BCF*%
X150000000Y-55000000D03*
X150000000Y-52500000D03*
%TD*%
D11*
%TO.C,J4*%
X105000000Y-120000000D03*
D12*
X110000000Y-120000000D03*
%TD*%
D10*
%TO.C,0.1\u03BCF*%
X140000000Y-55000000D03*
X140000000Y-52500000D03*
%TD*%
D11*
%TO.C,J2*%
X105000000Y-100000000D03*
D12*
X110000000Y-100000000D03*
%TD*%
D13*
%TO.C,J8*%
X195000000Y-90000000D03*
D12*
X190000000Y-90000000D03*
%TD*%
D14*
%TO.C,MCP2562*%
X150000000Y-100000000D03*
D15*
X150000000Y-97460000D03*
X150000000Y-94920000D03*
X150000000Y-92380000D03*
X142380000Y-92380000D03*
X142380000Y-94920000D03*
X142380000Y-97460000D03*
X142380000Y-100000000D03*
%TD*%
D10*
%TO.C,120\u03A9*%
X111700000Y-72080000D03*
D15*
X111700000Y-61920000D03*
%TD*%
D11*
%TO.C,J1*%
X105000000Y-90000000D03*
D12*
X110000000Y-90000000D03*
%TD*%
D13*
%TO.C,J7*%
X195000000Y-100000000D03*
D12*
X190000000Y-100000000D03*
%TD*%
D16*
%TO.C,U3*%
X125870000Y-86680000D03*
X158890000Y-138750000D03*
X174130000Y-87950000D03*
D17*
X174130000Y-114370000D03*
D18*
X174130000Y-111830000D03*
X174130000Y-109290000D03*
X174130000Y-106750000D03*
X174130000Y-104210000D03*
X174130000Y-101670000D03*
X174130000Y-99130000D03*
X174130000Y-96590000D03*
X174130000Y-94050000D03*
X174130000Y-91510000D03*
D17*
X125870000Y-100650000D03*
D18*
X125870000Y-103190000D03*
X125870000Y-105730000D03*
X125870000Y-108270000D03*
X125870000Y-110810000D03*
X125870000Y-113350000D03*
X125870000Y-115890000D03*
X125870000Y-118430000D03*
D19*
X118250000Y-90490000D03*
D20*
X120790000Y-90490000D03*
X118250000Y-93030000D03*
X120790000Y-93030000D03*
X118250000Y-95570000D03*
X120790000Y-95570000D03*
X118250000Y-98110000D03*
X120790000Y-98110000D03*
X118250000Y-100650000D03*
X120790000Y-100650000D03*
X118250000Y-103190000D03*
X120790000Y-103190000D03*
X118250000Y-105730000D03*
X120790000Y-105730000D03*
X118250000Y-108270000D03*
X120790000Y-108270000D03*
X118250000Y-110810000D03*
X120790000Y-110810000D03*
X118250000Y-113350000D03*
X120790000Y-113350000D03*
X118250000Y-115890000D03*
X120790000Y-115890000D03*
X118250000Y-118430000D03*
X120790000Y-118430000D03*
X118250000Y-120970000D03*
X120790000Y-120970000D03*
X118250000Y-123510000D03*
X120790000Y-123510000D03*
X118250000Y-126050000D03*
X120790000Y-126050000D03*
X118250000Y-128590000D03*
X120790000Y-128590000D03*
X118250000Y-131130000D03*
X120790000Y-131130000D03*
X118250000Y-133670000D03*
X120790000Y-133670000D03*
X118250000Y-136210000D03*
X120790000Y-136210000D03*
D17*
X125870000Y-123510000D03*
D18*
X125870000Y-126050000D03*
X125870000Y-128590000D03*
X125870000Y-131130000D03*
X125870000Y-133670000D03*
X125870000Y-136210000D03*
D17*
X174130000Y-136210000D03*
D18*
X174130000Y-133670000D03*
X174130000Y-131130000D03*
X174130000Y-128590000D03*
X174130000Y-126050000D03*
X174130000Y-123510000D03*
X174130000Y-120970000D03*
X174130000Y-118430000D03*
D19*
X179210000Y-90490000D03*
D20*
X181750000Y-90490000D03*
X179210000Y-93030000D03*
X181750000Y-93030000D03*
X179210000Y-95570000D03*
X181750000Y-95570000D03*
X179210000Y-98110000D03*
X181750000Y-98110000D03*
X179210000Y-100650000D03*
X181750000Y-100650000D03*
X179210000Y-103190000D03*
X181750000Y-103190000D03*
X179210000Y-105730000D03*
X181750000Y-105730000D03*
X179210000Y-108270000D03*
X181750000Y-108270000D03*
X179210000Y-110810000D03*
X181750000Y-110810000D03*
X179210000Y-113350000D03*
X181750000Y-113350000D03*
X179210000Y-115890000D03*
X181750000Y-115890000D03*
X179210000Y-118430000D03*
X181750000Y-118430000D03*
X179210000Y-120970000D03*
X181750000Y-120970000D03*
X179210000Y-123510000D03*
X181750000Y-123510000D03*
X179210000Y-126050000D03*
X181750000Y-126050000D03*
X179210000Y-128590000D03*
X181750000Y-128590000D03*
X179210000Y-131130000D03*
X181750000Y-131130000D03*
X179210000Y-133670000D03*
X181750000Y-133670000D03*
X179210000Y-136210000D03*
X181750000Y-136210000D03*
%TD*%
D13*
%TO.C,J5*%
X195000000Y-120000000D03*
D12*
X190000000Y-120000000D03*
%TD*%
D13*
%TO.C,J6*%
X195000000Y-110000000D03*
D12*
X190000000Y-110000000D03*
%TD*%
D11*
%TO.C,J3*%
X105000000Y-110000000D03*
D12*
X110000000Y-110000000D03*
%TD*%
M02*
